<svg viewBox="0 0 984 400" xmlns="http://www.w3.org/2000/svg"><g><g><g><g><g><line x1="48.875" y1="377" x2="43.875" y2="377" style="visibility: inherit;" fill="rgb(0, 0, 0)" stroke="rgb(204, 204, 204)" stroke-width="1px"></line><line x1="48.875" y1="348" x2="43.875" y2="348" style="visibility: inherit;" fill="rgb(0, 0, 0)" stroke="rgb(204, 204, 204)" stroke-width="1px"></line><line x1="48.875" y1="319" x2="43.875" y2="319" style="visibility: inherit;" fill="rgb(0, 0, 0)" stroke="rgb(204, 204, 204)" stroke-width="1px"></line><line x1="48.875" y1="290" x2="43.875" y2="290" style="visibility: inherit;" fill="rgb(0, 0, 0)" stroke="rgb(204, 204, 204)" stroke-width="1px"></line><line x1="48.875" y1="261" x2="43.875" y2="261" style="visibility: inherit;" fill="rgb(0, 0, 0)" stroke="rgb(204, 204, 204)" stroke-width="1px"></line><line x1="48.875" y1="232" x2="43.875" y2="232" style="visibility: inherit;" fill="rgb(0, 0, 0)" stroke="rgb(204, 204, 204)" stroke-width="1px"></line><line x1="48.875" y1="203" x2="43.875" y2="203" style="visibility: inherit;" fill="rgb(0, 0, 0)" stroke="rgb(204, 204, 204)" stroke-width="1px"></line><line x1="48.875" y1="174" x2="43.875" y2="174" style="visibility: inherit;" fill="rgb(0, 0, 0)" stroke="rgb(204, 204, 204)" stroke-width="1px"></line><line x1="48.875" y1="145" x2="43.875" y2="145" style="visibility: inherit;" fill="rgb(0, 0, 0)" stroke="rgb(204, 204, 204)" stroke-width="1px"></line><line x1="48.875" y1="116" x2="43.875" y2="116" style="visibility: inherit;" fill="rgb(0, 0, 0)" stroke="rgb(204, 204, 204)" stroke-width="1px"></line><line x1="48.875" y1="87" x2="43.875" y2="87" style="visibility: inherit;" fill="rgb(0, 0, 0)" stroke="rgb(204, 204, 204)" stroke-width="1px"></line><line x1="48.875" y1="58" x2="43.875" y2="58" style="visibility: inherit;" fill="rgb(0, 0, 0)" stroke="rgb(204, 204, 204)" stroke-width="1px"></line><line x1="48.875" y1="29" x2="43.875" y2="29" style="visibility: inherit;" fill="rgb(0, 0, 0)" stroke="rgb(204, 204, 204)" stroke-width="1px"></line><line x1="48.875" y1="0" x2="43.875" y2="0" style="visibility: inherit;" fill="rgb(0, 0, 0)" stroke="rgb(204, 204, 204)" stroke-width="1px"></line></g><g transform="translate(38.875, 0)"><text x="0" y="377" dx="0em" dy="0.3em" style="text-anchor: end; visibility: hidden; font-family: &quot;Helvetica Neue&quot;, sans-serif; font-size: 12px; font-weight: 200;" fill="rgb(50, 49, 63)" stroke="none" stroke-width="1px">-250</text><text x="0" y="348" dx="0em" dy="0.3em" style="text-anchor: end; visibility: inherit; font-family: &quot;Helvetica Neue&quot;, sans-serif; font-size: 12px; font-weight: 200;" fill="rgb(50, 49, 63)" stroke="none" stroke-width="1px">-200</text><text x="0" y="319" dx="0em" dy="0.3em" style="text-anchor: end; visibility: inherit; font-family: &quot;Helvetica Neue&quot;, sans-serif; font-size: 12px; font-weight: 200;" fill="rgb(50, 49, 63)" stroke="none" stroke-width="1px">-150</text><text x="0" y="290" dx="0em" dy="0.3em" style="text-anchor: end; visibility: inherit; font-family: &quot;Helvetica Neue&quot;, sans-serif; font-size: 12px; font-weight: 200;" fill="rgb(50, 49, 63)" stroke="none" stroke-width="1px">-100</text><text x="0" y="261" dx="0em" dy="0.3em" style="text-anchor: end; visibility: inherit; font-family: &quot;Helvetica Neue&quot;, sans-serif; font-size: 12px; font-weight: 200;" fill="rgb(50, 49, 63)" stroke="none" stroke-width="1px">-50</text><text x="0" y="232" dx="0em" dy="0.3em" style="text-anchor: end; visibility: inherit; font-family: &quot;Helvetica Neue&quot;, sans-serif; font-size: 12px; font-weight: 200;" fill="rgb(50, 49, 63)" stroke="none" stroke-width="1px">0</text><text x="0" y="203" dx="0em" dy="0.3em" style="text-anchor: end; visibility: inherit; font-family: &quot;Helvetica Neue&quot;, sans-serif; font-size: 12px; font-weight: 200;" fill="rgb(50, 49, 63)" stroke="none" stroke-width="1px">50</text><text x="0" y="174" dx="0em" dy="0.3em" style="text-anchor: end; visibility: inherit; font-family: &quot;Helvetica Neue&quot;, sans-serif; font-size: 12px; font-weight: 200;" fill="rgb(50, 49, 63)" stroke="none" stroke-width="1px">100</text><text x="0" y="145" dx="0em" dy="0.3em" style="text-anchor: end; visibility: inherit; font-family: &quot;Helvetica Neue&quot;, sans-serif; font-size: 12px; font-weight: 200;" fill="rgb(50, 49, 63)" stroke="none" stroke-width="1px">150</text><text x="0" y="116" dx="0em" dy="0.3em" style="text-anchor: end; visibility: inherit; font-family: &quot;Helvetica Neue&quot;, sans-serif; font-size: 12px; font-weight: 200;" fill="rgb(50, 49, 63)" stroke="none" stroke-width="1px">200</text><text x="0" y="87" dx="0em" dy="0.3em" style="text-anchor: end; visibility: inherit; font-family: &quot;Helvetica Neue&quot;, sans-serif; font-size: 12px; font-weight: 200;" fill="rgb(50, 49, 63)" stroke="none" stroke-width="1px">250</text><text x="0" y="58" dx="0em" dy="0.3em" style="text-anchor: end; visibility: inherit; font-family: &quot;Helvetica Neue&quot;, sans-serif; font-size: 12px; font-weight: 200;" fill="rgb(50, 49, 63)" stroke="none" stroke-width="1px">300</text><text x="0" y="29" dx="0em" dy="0.3em" style="text-anchor: end; visibility: inherit; font-family: &quot;Helvetica Neue&quot;, sans-serif; font-size: 12px; font-weight: 200;" fill="rgb(50, 49, 63)" stroke="none" stroke-width="1px">350</text><text x="0" y="0" dx="0em" dy="0.3em" style="text-anchor: end; visibility: hidden; font-family: &quot;Helvetica Neue&quot;, sans-serif; font-size: 12px; font-weight: 200;" fill="rgb(50, 49, 63)" stroke="none" stroke-width="1px">400</text></g><line x1="48.875" y1="0" x2="48.875" y2="377" fill="rgb(0, 0, 0)" stroke="rgb(204, 204, 204)" stroke-width="1px"></line></g></g><g transform="translate(48, 0)" clip-path="url(#clip_0)"><clipPath id="clip_0"><rect width="935" height="377"></rect></clipPath><g><g><g><line x1="0" y1="0" x2="0" y2="377" fill="rgb(0, 0, 0)" stroke="rgb(60, 60, 60)" stroke-width="1px" opacity="0.25"></line><line x1="93.5125" y1="0" x2="93.5125" y2="377" fill="rgb(0, 0, 0)" stroke="rgb(60, 60, 60)" stroke-width="1px" opacity="0.25"></line><line x1="187.025" y1="0" x2="187.025" y2="377" fill="rgb(0, 0, 0)" stroke="rgb(60, 60, 60)" stroke-width="1px" opacity="0.25"></line><line x1="280.53749999999997" y1="0" x2="280.53749999999997" y2="377" fill="rgb(0, 0, 0)" stroke="rgb(60, 60, 60)" stroke-width="1px" opacity="0.25"></line><line x1="374.05" y1="0" x2="374.05" y2="377" fill="rgb(0, 0, 0)" stroke="rgb(60, 60, 60)" stroke-width="1px" opacity="0.25"></line><line x1="467.5625" y1="0" x2="467.5625" y2="377" fill="rgb(0, 0, 0)" stroke="rgb(60, 60, 60)" stroke-width="1px" opacity="0.25"></line><line x1="561.0749999999999" y1="0" x2="561.0749999999999" y2="377" fill="rgb(0, 0, 0)" stroke="rgb(60, 60, 60)" stroke-width="1px" opacity="0.25"></line><line x1="654.5875" y1="0" x2="654.5875" y2="377" fill="rgb(0, 0, 0)" stroke="rgb(60, 60, 60)" stroke-width="1px" opacity="0.25"></line><line x1="748.1" y1="0" x2="748.1" y2="377" fill="rgb(0, 0, 0)" stroke="rgb(60, 60, 60)" stroke-width="1px" opacity="0.25"></line><line x1="841.6125000000001" y1="0" x2="841.6125000000001" y2="377" fill="rgb(0, 0, 0)" stroke="rgb(60, 60, 60)" stroke-width="1px" opacity="0.25"></line><line x1="935.125" y1="0" x2="935.125" y2="377" fill="rgb(0, 0, 0)" stroke="rgb(60, 60, 60)" stroke-width="1px" opacity="0.25"></line></g><g><line x1="0" y1="377" x2="935.125" y2="377" fill="rgb(0, 0, 0)" stroke="rgb(60, 60, 60)" stroke-width="1px" opacity="0.25"></line><line x1="0" y1="348" x2="935.125" y2="348" fill="rgb(0, 0, 0)" stroke="rgb(60, 60, 60)" stroke-width="1px" opacity="0.25"></line><line x1="0" y1="319" x2="935.125" y2="319" fill="rgb(0, 0, 0)" stroke="rgb(60, 60, 60)" stroke-width="1px" opacity="0.25"></line><line x1="0" y1="290" x2="935.125" y2="290" fill="rgb(0, 0, 0)" stroke="rgb(60, 60, 60)" stroke-width="1px" opacity="0.25"></line><line x1="0" y1="261" x2="935.125" y2="261" fill="rgb(0, 0, 0)" stroke="rgb(60, 60, 60)" stroke-width="1px" opacity="0.25"></line><line x1="0" y1="232" x2="935.125" y2="232" fill="rgb(0, 0, 0)" stroke="rgb(60, 60, 60)" stroke-width="1px" opacity="0.25"></line><line x1="0" y1="203" x2="935.125" y2="203" fill="rgb(0, 0, 0)" stroke="rgb(60, 60, 60)" stroke-width="1px" opacity="0.25"></line><line x1="0" y1="174" x2="935.125" y2="174" fill="rgb(0, 0, 0)" stroke="rgb(60, 60, 60)" stroke-width="1px" opacity="0.25"></line><line x1="0" y1="145" x2="935.125" y2="145" fill="rgb(0, 0, 0)" stroke="rgb(60, 60, 60)" stroke-width="1px" opacity="0.25"></line><line x1="0" y1="116" x2="935.125" y2="116" fill="rgb(0, 0, 0)" stroke="rgb(60, 60, 60)" stroke-width="1px" opacity="0.25"></line><line x1="0" y1="87" x2="935.125" y2="87" fill="rgb(0, 0, 0)" stroke="rgb(60, 60, 60)" stroke-width="1px" opacity="0.25"></line><line x1="0" y1="58" x2="935.125" y2="58" fill="rgb(0, 0, 0)" stroke="rgb(60, 60, 60)" stroke-width="1px" opacity="0.25"></line><line x1="0" y1="29" x2="935.125" y2="29" fill="rgb(0, 0, 0)" stroke="rgb(60, 60, 60)" stroke-width="1px" opacity="0.25"></line><line x1="0" y1="0" x2="935.125" y2="0" fill="rgb(0, 0, 0)" stroke="rgb(60, 60, 60)" stroke-width="1px" opacity="0.25"></line></g></g></g><g><g><line x1="0" y1="232" x2="935.125" y2="232" fill="rgb(0, 0, 0)" stroke="rgb(153, 153, 153)" stroke-width="1.5px"></line></g></g><g><g><line x1="93.5125" y1="0" x2="93.5125" y2="377" fill="rgb(0, 0, 0)" stroke="rgb(153, 153, 153)" stroke-width="1.5px"></line></g></g><g><g><g><g><g><path stroke="rgb(255, 112, 67)" stroke-width="2px" d="M94.447625,353.0597778320313L96.317875,308.1223272705078L96.87895,292.7443975830078L98.00110000000001,300.5794686889649L100.9935,342.45228973388674L101.36755,388.71382995605467L101.74159999999999,357.6146398925781L101.928625,270.8255155944824L102.302675,433.81019287109376L103.424825,348.74377990722655L103.61184999999999,267.43388160705564L103.98589999999999,392.6079260253906L105.66912500000001,346.55644287109374L106.791275,379.34850616455077L106.9783,427.7739483642578L107.165325,297.37352523803713L107.35235,328.2958416748047L108.287475,267.0233322143555L109.783675,271.7662322998047L111.09285,423.43798461914065L112.58905,429.73828063964845L113.150125,247.40740715026857L113.33715000000001,379.5576516723633L114.646325,396.9552886962891L115.58145,302.82669433593753L117.07765,338.96744873046873L117.82575,354.9694873046875L119.50897499999999,589.804385986328L119.883025,313.0289099121094L120.07004999999998,294.154744720459L121.56625000000001,252.96408920288087L122.50137500000001,279.43758102416996L123.06245,341.2112670898438L124.74567499999999,334.67769134521484L124.9327,310.43467193603516L126.61592499999999,277.4479507446289L126.80295,311.26593505859375L127.738075,268.84133697509765L128.11212500000002,326.5059802246094L128.29915,281.5432847595215L129.04725000000002,285.96720962524415L130.54345,366.04579162597656L132.03965,360.647594909668L132.226675,342.3094314575195L132.4137,327.0595007324219L133.1618,329.85296325683595L135.219075,309.47286102294925L136.341225,297.3001623535156L137.27635,315.60385467529295L137.837425,318.69506103515624L140.08172499999998,385.5376184082031L142.139,457.79255920410156L142.70007500000003,300.28279129028317L143.44817500000002,268.5755530548096L144.196275,276.0481927490234L144.570325,115.25518463134767L148.12380000000002,292.3469529724121L149.058925,291.6919306945801L149.24595,292.5062591552734L150.181075,293.3236408996582L150.929175,280.9492971801758L151.1162,265.1877290344238L151.49025,273.9183459472656L152.98645,425.2797076416016L153.173475,349.2142510986328L154.295625,328.970166015625L154.48265,288.36877212524416L154.66967499999998,288.006404876709L155.23075,293.8797102355957L156.913975,309.98176818847656L158.410175,278.1412010192871L161.402575,277.3935137939453L162.150675,308.4742779541016L163.272825,306.1023146057129L164.020925,268.4795958709717L164.39497500000002,270.9370179748535L166.639275,310.3550122070312L166.8263,261.9005992126465L169.8187,299.438567199707L172.250025,256.1851264953613L172.43705,282.81817230224607L172.81109999999998,240.435044670105L173.93325,237.81786890029906L175.616475,227.3599822998047L175.99052500000002,256.7222765350342L176.17755000000002,145.98290954589845L176.738625,184.4781660461426L177.86077500000002,111.50439819335935L179.544,141.83771850585939L180.105075,146.53950103759766L180.2921,236.77466032028198L181.975325,287.35704223632814L182.16235,241.46662090301515L184.967725,148.48020355224608L185.34177499999998,250.07553680419923L185.715825,306.24296478271486L188.334175,116.27026428222655L189.2693,305.91920166015626L189.64335,298.1947169494629L190.204425,158.86998809814455L191.700625,185.62598388671876L192.822775,123.38701721191407L193.19682500000002,275.3781341552734L193.7579,324.82599273681643L194.88005,172.80355972290042L195.815175,231.38809636592865L197.685425,301.17423950195314L198.059475,308.5104040527344L198.807575,299.2914520263672L199.929725,260.87859436035154L200.677825,276.46691299438476L200.86485,254.51623039245607L201.799975,162.3961767578125L202.174025,117.01779663085938L202.36105,94.87805603027346L202.7351,162.58875045776367L203.10915,299.70511001586914L203.296175,325.4177810668945L204.2313,92.98586975097658L204.41832499999998,89.58950317382812L206.10155,97.48521514892576L207.22369999999998,115.5669204711914L207.59775,136.33277191162108L208.532875,94.46326080322268L209.46800000000002,113.01730468750003L209.84205,166.720701751709L212.08635,98.84294403076171L213.395525,231.74350716114046L213.58255,231.85762863457202L213.9566,247.22799022674562L214.14362500000001,360.7613983154297L214.33065,203.11511322021485L214.517675,259.06577796936034L214.891725,239.39543420791628L215.4528,126.24658111572268L216.2009,76.90377319335937L217.136025,134.10055603027342L217.6971,255.1604356384277L218.4452,227.69733613014222L219.006275,344.5805700683594L219.1933,330.49448028564456L219.56735,142.96261901855468L219.75437499999998,292.6877392578125L220.31545,128.46526519775392L220.502475,111.63352111816408L221.06355,141.8000436401367L221.250575,242.38044658660888L222.1857,132.22679565429686L222.372725,156.28915802001953L223.68189999999998,289.1965217590332L224.242975,333.97287841796873L224.991075,264.1443733215332L225.55215,278.8128305053711L225.92620000000002,240.23205219268797L226.30025,269.89104263305666L227.04835,282.940750579834L227.79645000000002,249.44357677459715L228.357525,139.86410247802735L228.54455000000002,117.09548278808592L228.73157500000002,130.09891357421876L230.04075,107.40865264892574L231.1629,99.4118991088867L231.53695,125.0213558959961L231.723975,129.85604919433595L232.472075,120.69602111816408L233.220175,94.59060485839842L233.78125,96.22122650146486L233.96827499999998,110.81743591308594L234.1553,112.13024169921874L234.52935000000002,126.38188140869141L234.90339999999998,101.01798828124998L236.586625,137.64532104492187L236.77364999999998,90.70328796386718L237.33472500000002,81.48054809570311L237.52175,82.95902770996094L237.70877499999997,89.39604003906248L238.08282499999999,92.47694488525389L238.26985000000002,98.4599560546875L239.392,257.38331909179686L240.14009999999996,164.3581327819824L240.327125,258.7438047790527L240.701175,143.95540527343752L241.075225,137.7205114746094L241.6363,148.6132028198242L241.82332499999998,87.36788970947265L242.01035,107.9101345825195L242.197375,121.05852996826172L242.75845,223.47226327896118L243.50655000000003,87.10143981933595L244.44167500000003,78.99220153808596L244.6287,129.2713232421875L244.815725,138.15363525390623L245.93787500000002,138.04141601562497L247.060025,97.53361633300779L247.80812500000002,92.0997271728516L248.3692,71.01194458007814L249.11730000000003,77.83717529296877L249.8654,68.50524291992184L250.23945,88.55905975341796L251.174575,73.68901062011719L251.73565,96.50319946289062L255.66317499999997,76.78102233886716L256.037225,78.8179962158203L256.22425000000004,63.0668933105469L256.97235,98.15794647216796L257.3464,85.41915130615234L258.09450000000004,77.22828857421877L258.46855,88.67918212890623L259.96475000000004,75.40200012207032L261.0869,75.91927062988282L261.83500000000004,206.92756271362305L263.14417499999996,79.95390624999999L263.3312,81.8064617919922L263.518225,77.02085998535159L263.70525,90.30817535400388L264.64037499999995,71.03203430175785L265.01442499999996,199.471160736084L265.5755,93.67652252197263L265.762525,203.32346000671387L266.136575,62.432695312500016L267.632775,62.36996582031247L267.8198,90.02115783691409L268.380875,124.01270141601563L269.69005,92.64821197509764L270.251125,61.057744140625005L271.93435,57.76986206054687L272.3084,77.91066650390627L272.495425,67.57913330078122L272.68245,58.0921649169922L273.24352500000003,96.27023834228515L273.43055,86.01823211669921L274.17865,87.3016467285156L275.11377500000003,82.66950561523436L275.3008,83.30519042968746L276.0489,82.20154785156251L276.235925,315.0414044189453L276.42294999999996,86.85253082275392L276.609975,85.00837402343751L277.358075,55.91769592285158L277.5451,113.19826263427734L278.106175,233.5762065410614L278.29319999999996,87.29893859863284L279.7894,103.51700805664063L280.53749999999997,82.41472900390625L280.91155,277.0927033996582L281.2856,134.03976470947265L281.472625,372.2837121582031L282.7818,87.17488677978514L282.968825,108.77207214355468L283.15585,215.66724102020262L283.716925,94.84896575927735L285.213125,110.80685119628907L285.587175,100.094206237793L286.335275,107.5779992675781L286.52230000000003,91.15299682617189L287.457425,73.25029357910154L288.76660000000004,81.247861328125L290.823875,84.87680847167968L291.197925,125.56545104980466L292.320075,95.32171142578125L292.50710000000004,90.84565948486329L292.88115,110.75736145019533L293.2552,87.50362365722657L294.0033,134.54467163085937L294.7514,162.32701766967776L295.12545,114.23856506347653L296.060575,322.79671844482425L296.24760000000003,276.1136038208008L296.434625,137.3446124267578L297.93082499999997,115.37464324951173L299.05297499999995,86.74108154296874L299.80107499999997,81.95162109375002L299.9881,162.84099151611326L300.175125,103.05811279296876L301.85835,89.43112182617188L302.2324,84.70269165039065L302.793475,73.19273254394528L303.91562500000003,256.9118965148926L304.10265,237.6682994842529L305.411825,347.2174301147461L305.78587500000003,322.1905487060547L309.52637500000003,136.9386761474609L309.7134,89.14671508789064L310.4615,124.50244812011718L310.648525,144.7845620727539L310.83554999999996,130.90337860107425L314.202,98.50536590576172L314.763075,109.21709930419922L315.137125,100.1338458251953L316.4463,100.26652648925784L316.633325,83.2772772216797L317.755475,92.47595367431637L318.129525,82.63113159179687L319.06465000000003,72.01423583984376L319.43870000000004,85.52648529052732L319.81275000000005,106.89640899658201L320.56085,74.3065881347656L322.4311,75.30829528808596L323.9273,73.51675231933592L324.114325,114.20242126464848L324.30135,118.01822937011718L324.6754,70.50435607910157L325.236475,71.62146850585935L326.1716,77.81981140136719L326.732675,103.25019531250001L327.854825,104.2898782348633L328.22887499999996,91.39302917480467L328.60292499999997,78.09156250000001L328.78995000000003,92.89053649902343L329.351025,81.46152038574218L329.725075,98.73042388916014L330.28615,88.34632995605466L331.78235,100.8987155151367L333.091525,99.20796630859377L334.213675,81.21058471679686L334.96177500000005,84.09976104736324L335.1488,95.20604949951172L335.335825,76.95947570800786L335.52285,89.9440115356445L336.645,90.32035308837891L337.206075,72.63901733398438L338.51525,77.34856140136719L338.8893,87.83149322509769L339.450375,73.45264221191405L339.6374,73.84314392089846L340.19847500000003,85.66516632080078L341.320625,84.07074157714845L341.694675,206.45344306945802L342.25575,212.7175665283203L342.816825,91.44489959716799L343.00385,102.99864898681642L343.3779,81.63841613769534L343.564925,99.44218414306641L344.687075,88.13659149169922L346.931375,221.22484680175782L348.98864999999995,89.07380798339841L349.73675,81.9564178466797L351.419975,79.22019775390623L352.35510000000005,90.64693939208985L352.542125,114.30032104492187L353.1032,98.1102355957031L353.290225,74.51658325195314L353.664275,65.4121691894531L353.85130000000004,75.18248229980469L354.412375,93.46818237304689L357.59180000000003,90.39238403320314L357.778825,210.76707580566406L357.96585,88.07501251220702L358.90097499999996,103.55915222167971L359.46205000000003,112.67758483886718L360.21015,97.09925354003906L360.397175,125.13241577148438L360.5842,78.00718566894528L361.33230000000003,277.455079498291L361.519325,85.55315063476564L362.0804,126.90005462646482L362.8285,80.821357421875L363.20255000000003,96.04264923095701L365.8209,73.1345166015625L367.504125,95.4943768310547L367.69115,70.0629309082031L369.748425,88.7495227050781L371.24462500000004,75.33369506835936L371.43165,74.15335754394528L371.992725,76.02904724121095L372.366775,75.21614807128907L372.55379999999997,78.56212219238279L374.05,75.86282470703122L374.237025,74.4020983886719L374.42404999999997,89.0959243774414L375.17215,116.65894287109376L375.5462,104.85272674560548L375.92025,87.053551940918L377.41645,77.71470764160159L378.351575,70.53733154296873L378.5386,87.89590423583985L379.099675,99.94251556396483L380.40885,57.44614318847658L382.65315,77.54043151855467L383.588275,97.5516616821289L383.7753,238.14929620742797L384.14935,98.56347564697268L384.336375,326.0139501953125L385.458525,169.8753323364258L386.76770000000005,98.7636471557617L386.954725,96.62117126464841L388.63795000000005,91.48991119384766L389.38605,80.3430096435547L389.7601,83.66533630371094L390.50820000000004,88.14283966064454L392.191425,86.56099975585937L393.5006,88.33404602050786L393.68762499999997,80.47892944335933L394.62275,260.3958237457275L396.11895,116.50413696289058L396.493,137.81921661376956L397.802175,83.95722137451173L397.9892,80.01097167968749L398.7373,91.73547485351565L399.672425,91.1229507446289L400.2335,85.39033538818359L400.60755,84.12102783203125L401.168625,82.11471069335937L401.7297,88.46766479492186L402.4778,91.13219024658201L403.974,81.96438293457032L405.4702,91.60267028808596L405.84425,71.98871215820316L406.2183,241.12621793746948L406.779375,67.68862670898437L406.96639999999996,94.24183135986328L408.08855,192.23240921020508L408.275575,195.29008255004882L409.771775,105.08422760009768L410.33285,73.2036181640625L410.519875,92.72603088378906L410.70689999999996,109.34604522705081L410.893925,75.67741516113284L411.26797500000004,209.69225799560547L411.82905,86.71253112792971L413.13822500000003,104.19969573974612L413.32525,263.35257942199706L414.634425,86.93865112304684L414.82144999999997,78.1148028564453L415.008475,332.41209289550784L416.69169999999997,93.80651275634767L417.4398,119.28259857177733L417.81385,85.14607269287109L418.000875,111.78838012695309L418.374925,98.03562927246094L419.31005000000005,69.77788696289065L419.497075,77.98187438964845L419.871125,77.60202819824218L420.05815,91.27200408935545L420.245175,82.25687866210939L421.18030000000005,83.88673034667971L423.79865,80.51714416503904L425.481875,86.88368316650394L426.604025,93.8808624267578L427.9132,75.73458679199223L428.10022499999997,97.94512817382815L429.78345,258.68259971618653L431.092625,104.60091491699217L432.588825,97.90084228515622L432.77585,73.7925390625L433.336925,87.68112121582033L434.6461,92.05223754882809L435.02015,94.06228942871093L435.76825,104.6816455078125L437.6385,139.3038116455078L437.825525,153.57733764648435L438.3866,111.60072265625001L439.321725,97.3423745727539L440.06982500000004,101.22518676757812L442.50115,101.72892547607421L442.8752,110.33900848388669L443.062225,105.3245431518555L444.184375,158.1089372253418L444.3714,122.5894729614258L444.558425,94.87140075683595L444.932475,245.42393211364745L445.306525,157.1126153564453L447.55082500000003,283.1065660095215L449.23404999999997,189.71119781494139L449.98215,76.39207824707034L450.917275,118.5131799316406L452.039425,87.16930236816404L453.16157499999997,81.38450683593749L453.34860000000003,96.64388061523437L454.47075,87.26904296875L455.21885000000003,65.53704406738285L455.59290000000004,93.72695037841794L455.96695,75.52786621093747L457.08910000000003,98.5451647949219L457.650175,92.32737823486326L458.024225,82.75846679687504L458.5853,59.506375122070324L459.146375,90.20096527099611L459.70745,94.36137847900392L460.0815,93.94925598144533L461.390675,189.9609210205078L461.764725,60.78549743652343L464.00902499999995,103.44311859130858L464.19605,74.15321594238281L464.38307499999996,81.47214050292973L467.001425,87.91986145019536L467.749525,80.46482238769528L468.497625,65.8418060302734L469.24572500000005,84.59865875244145L469.43275,83.07337097167971L469.993825,93.42502929687498L470.367875,86.60850708007808L470.741925,73.26615295410159L472.238125,81.39755187988283L472.612175,75.37472412109378L473.17325,95.73415252685544L473.73432500000007,59.21807434082035L474.2954,53.94998291015628L474.66945000000004,88.85798065185548L475.230525,66.77738525390623L475.7916,83.76936035156251L475.978625,68.06277343750003L478.784,66.9066143798828L480.093175,68.9901043701172L481.02829999999994,60.59098999023439L481.21532499999995,82.04329040527347L481.40235,62.556295776367165L481.77639999999997,79.51612731933596L481.963425,71.81362182617187L482.33747500000004,81.04983154296872L482.711525,75.50510375976563L483.459625,59.90245239257814L484.20772500000004,74.40103637695313L485.14285,76.22769653320313L485.5169,90.56484588623044L486.82607499999995,69.5239245605469L487.200125,66.98603515625001L487.38715,67.76516235351562L487.94822500000004,64.76719177246093L488.322275,71.76715881347656L489.070375,72.51796569824216L489.63145,87.12113128662111L490.00550000000004,77.49465881347658L490.37955,65.33106689453126L490.56657499999994,78.11908630371096L492.43682499999994,89.84886413574219L492.62385000000006,59.30912414550784L493.37194999999997,79.29137023925784L493.933025,216.19793159484863L494.49410000000006,71.18986694335939L494.681125,74.44349914550781L495.24219999999997,63.096771240234375L495.42922500000003,224.28783628463745L495.803275,91.71876586914061L496.7384,94.71363891601567L496.92542499999996,68.86505249023435L498.23460000000006,89.27178466796875L498.421625,94.48376647949215L499.169725,67.30210754394528L499.543775,61.061832885742206L499.917825,91.34270751953125L500.665925,80.88190979003906L502.536175,66.48711975097655L502.91022499999997,79.90443420410156L503.28427500000004,55.167915649414056L503.4713,96.17214385986324L504.2194,97.79818115234377L504.78047499999997,53.990994262695324L506.276675,72.19297241210938L507.02477500000003,80.7217938232422L507.58584999999994,74.12137329101563L509.64312500000005,64.85013488769533L510.39122499999996,58.79939392089847L510.76527500000003,78.49117980957033L511.32634999999993,84.65186553955078L511.7004,55.01988891601559L511.887425,59.928153076171895L512.2614749999999,76.8886041259766L512.635525,76.9867517089844L512.82255,95.84394683837888L513.1966,65.71712585449222L513.57065,89.4405117797852L513.757675,78.11032470703122L514.505775,199.44574546813965L514.6928,68.94509277343747L515.0668499999999,99.66985290527344L515.627925,77.16660339355468L516.56305,79.64744506835939L518.8073499999999,99.93128479003906L519.55545,90.85408477783204L520.116525,60.34099243164064L521.9867750000001,70.80947204589842L523.108925,68.39560791015629L523.29595,55.83930175781251L523.6700000000001,62.55176452636721L524.231075,93.16065917968751L524.79215,68.00519470214846L524.979175,74.77877624511717L525.1662,65.86692260742188L527.03645,78.99775939941406L527.223475,86.9538821411133L527.4105,85.98234497070314L527.78455,108.58506958007814L530.0288499999999,92.45621795654296L530.215875,81.88191772460937L530.4029,63.32984741210936L530.589925,81.68351623535153L532.0861249999999,81.20113281250002L533.76935,61.86214721679687L534.704475,59.55259033203123L536.200675,63.326218872070285L536.3877,87.36491607666017L536.9487750000001,81.20801818847656L539.5671249999999,90.87208587646484L540.1282,94.86091339111329L540.3152249999999,62.052919921875L540.50225,82.14014587402346L540.8763,83.1014434814453L542.3725,72.23297485351566L542.7465500000001,86.55784027099611L543.1206,72.55262268066406L543.4946500000001,55.748375854492224L545.3649,85.45958740234374L546.8611,61.7403521728516L547.0481249999999,64.36366271972656L547.98325,84.34541320800781L549.1054,84.13290466308592L550.6016,87.94108398437498L551.72375,82.37566467285154L551.910775,76.65416503906249L552.0978,80.65541809082032L552.2848250000001,82.53344421386714L552.658875,94.02396850585933L553.5939999999999,58.03154174804689L557.147475,63.94322998046874L557.521525,58.16503662109375L558.269625,68.34956970214841L558.45665,224.6099112510681L560.3268999999999,82.78965454101564L560.70095,59.63417053222656L561.262025,72.31951110839844L561.44905,77.50533203125002L561.636075,85.97742431640626L563.5063250000001,241.43427158355712L563.69335,84.2590628051758L564.2544250000001,81.71309326171877L564.628475,208.91816207885742L565.376575,214.05660179138184L565.750625,94.03215484619142L566.3117,82.31477600097656L566.68575,106.4592938232422L567.0598,100.58935150146482L567.43385,70.78720520019527L569.117075,114.03608367919924L569.865175,121.53272705078123L570.6132749999999,85.63231475830082L570.987325,69.49962219238279L571.5484,84.70955932617187L572.109475,251.6393977355957L573.231625,95.27548736572265L573.41865,73.89596130371098L574.16675,68.7786755371094L574.727825,73.2572674560547L575.2889,94.4022216796875L575.66295,77.52952819824219L576.598075,92.80785003662106L577.3461749999999,94.19740386962889L577.90725,76.30702880859377L578.0942749999999,63.304111328124975L578.2813,68.8460601806641L578.468325,80.96200317382812L579.0294,82.28266784667971L579.7775,68.79398620605468L580.89965,89.97789855957029L581.0866749999999,85.52406036376954L581.64775,70.2563586425781L583.14395,62.74441345214842L584.079075,79.90620422363281L584.64015,83.49936157226563L585.201225,61.41840332031251L585.38825,72.19431762695314L585.7623,58.9104095458984L586.323375,89.10088043212892L586.5104,56.44158630371095L586.88445,226.1653546333313L588.0066,99.98533233642576L588.567675,66.212041015625L589.12875,418.86671447753906L589.315775,83.55683410644531L590.063875,71.34352233886722L591.186025,88.62687805175784L593.61735,111.4717413330078L594.36545,123.365263671875L594.7395,104.75727844238281L595.674625,80.3118927001953L596.60975,119.44004180908206L598.2929750000001,113.95135284423827L599.041075,94.1562420654297L599.789175,100.99420806884768L600.35025,102.4371633911133L603.155625,102.20331726074215L605.025875,84.01388854980468L605.2129,84.60251739501956L605.3999249999999,73.86898620605467L605.961,85.0834671020508L607.08315,243.5375548171997L608.2053,84.36776855468747L608.3923249999999,83.16066833496092L608.5793500000001,84.50890106201172L608.766375,80.44158203125L608.9534,73.43393310546872L609.1404249999999,76.41960205078124L609.32745,72.0913732910156L610.82365,79.49586059570316L615.125225,212.76720230102538L615.3122500000001,159.0984312438965L615.499275,85.23538787841801L616.80845,83.52357543945311L618.865725,120.18199859619136L619.239775,118.49551513671872L619.987875,75.43152404785155L621.484075,71.22939147949216L621.6710999999999,80.28440429687498L622.232175,88.09054443359378L622.606225,113.60932312011721L622.7932500000001,111.23758544921873L623.1673,61.771593017578084L626.720775,69.74430969238284L627.6559,80.02606994628906L628.2169749999999,72.26656982421872L628.77805,59.512481689453125L630.461275,58.07469482421874L630.6483,61.62066345214845L631.77045,63.090735473632776L632.1445,55.868878784179685L632.331525,64.02718200683591L633.453675,63.6328216552734L634.01475,59.31623962402341L634.201775,77.19842834472655L635.1369,67.93469482421875L635.51095,68.5695831298828L635.885,74.09586730957034L636.446075,81.73638671875L636.6331,81.24198486328129L638.1293000000001,64.53119506835941L639.064425,77.0461535644531L639.4384749999999,72.50361083984376L639.6255000000001,72.57807556152346L639.812525,52.20246032714846L641.8698,83.710905456543L643.74005,73.1187634277344L645.2362499999999,54.55325866699218L648.415675,73.62893615722658L649.3508,74.08758361816405L649.72485,78.91159484863283L649.911875,49.35644592285155L650.47295,82.20161865234377L652.3432,69.34782531738279L653.46535,218.94991592407226L654.21345,332.7065267944336L655.148575,88.57580413818357L655.522625,73.31698791503902L655.8966750000001,64.69028442382813L656.270725,66.30261291503905L656.6447750000001,74.61004028320315L657.392875,67.9775469970703L657.5799000000001,112.0570425415039L658.140975,151.57581726074218L658.328,80.79601074218749L658.515025,63.453412475585935L659.263125,90.46176879882813L659.6371750000001,82.17935180664062L660.1982499999999,89.78188659667967L660.3852750000001,92.95188537597653L660.759325,121.10570098876951L661.69445,171.5868571472168L662.0685,87.5689019775391L662.255525,87.37279266357422L662.44255,60.62093872070312L663.5647,89.08701232910153L663.9387499999999,100.52257751464845L664.499825,70.53888916015626L666.18305,73.8029821777344L666.7441249999999,82.66300964355469L667.1181750000001,89.42082031249998L667.492225,102.40937408447263L667.866275,68.27114013671871L668.240325,81.57035888671874L669.9235500000001,215.59635948181153L670.67165,86.27307952880858L671.0457,287.65236557006835L671.606775,104.71187744140622L673.102975,238.89602043151854L673.851075,244.38191940307615L674.5991750000001,250.78406455993652L675.721325,119.29410369873045L677.0305,80.72057250976565L677.4045500000001,72.58931518554687L678.339675,120.95624053955078L679.64885,77.53354614257813L680.209925,84.6065087890625L680.3969500000001,65.11188537597656L681.332075,55.54903625488282L681.5191,87.18339172363284L681.7061249999999,99.55277496337891L682.080175,83.27426818847653L682.64125,84.25828399658201L683.576375,96.18324188232424L684.1374500000001,88.37834075927736L684.324475,67.66165161132812L684.698525,75.97323852539063L685.820675,76.58085083007813L687.6909250000001,65.13917907714841L689.0001,79.12608581542969L689.561175,73.79257446289063L689.7482,70.77352294921877L691.057375,72.82840942382813L691.2443999999999,78.78489685058594L691.431425,66.13233703613281L691.61845,214.4136069869995L692.553575,93.464084777832L693.11465,223.79990993499757L697.60325,110.77945129394533L698.1643250000001,71.84242004394531L698.538375,79.20403747558595L699.4735,89.27202362060547L700.034575,76.67292724609376L700.2216,87.08333251953127L700.59565,93.98521392822266L700.7826749999999,58.94563293457031L702.09185,77.41182189941406L702.4659,75.28553283691406L702.83995,75.90468566894532L704.5231749999999,87.93400390624998L705.4583,79.50771972656253L705.6453250000001,86.92362365722659L706.767475,85.52802520751953L707.141525,64.85965759277343L707.515575,85.16367553710938L707.889625,79.60280517578127L708.637725,73.98030273437502L709.1988,75.22975952148437L709.9469,92.79675201416018L711.630125,65.279169921875L711.81715,230.23212896823884L712.0041749999999,215.74499687194825L713.126325,333.0124215698242L714.622525,104.3623693847656L715.370625,81.98026000976563L715.7446749999999,113.39750488281248L715.9317,258.6467169952393L716.118725,121.36577880859375L716.866825,247.47483493804933L717.8019499999999,96.55424682617183L719.111125,55.74083557128904L720.607325,101.81081542968752L721.355425,235.3019246959686L722.103525,273.3517936706543L722.477575,114.03495971679689L723.599725,100.81781677246096L724.1608,81.97841918945312L724.53485,104.86917907714843L724.9089,94.03437622070311L725.2829499999999,127.94030395507812L725.844025,113.59802154541018L726.218075,132.7036831665039L726.77915,106.54012176513669L727.52725,137.05037322998047L727.9013,118.06520568847657L729.0234499999999,108.04362060546873L729.958575,102.80323883056639L730.1456000000001,84.72540985107423L730.8937,62.71550903320309L732.2028750000001,74.50051147460937L734.26015,61.53433959960938L734.821225,80.92169982910156L735.00825,70.50435607910157L735.5693249999999,82.88148315429686L736.50445,98.38957122802736L737.6265999999999,66.71672668457029L737.813625,83.02120849609372L738.5617249999999,57.1489923095703L738.935775,65.85467407226565L740.057925,84.09565460205079L740.24495,58.45308959960937L740.619,57.00565612792968L741.3670999999999,60.95524230957034L742.676275,98.23454406738279L743.798425,257.7422060394287L744.3595,65.12955017089843L745.4816500000001,99.64072723388671L746.97785,84.63411224365234L747.538925,69.53505798339842L747.912975,308.10027282714844L748.1,69.2226672363281L749.035125,67.44581542968751L749.22215,80.75351257324218L749.783225,73.73563293457033L750.157275,72.1308624267578L750.3443,73.4614215087891L750.71835,93.92883880615233L751.653475,68.29340698242186L753.523725,79.6445422363281L754.645875,89.83754486083984L755.0199250000001,93.29212738037108L755.20695,93.47057189941404L755.95505,84.5493194580078L756.142075,87.94280975341798L756.890175,70.70213806152344L757.264225,63.677266845703116L758.386375,69.98152770996097L758.5734,75.10490234375004L759.134475,84.98800994873045L759.882575,84.36344970703124L762.1268749999999,73.91785644531251L763.0619999999999,109.12337677001955L763.2490250000001,76.43385070800781L763.623075,83.64136138916012L765.3063,117.16834564208983L765.493325,73.42667602539063L766.615475,97.35495941162111L766.8025,78.45069946289061L767.17655,84.1759957885742L769.42085,310.1860638427734L770.16895,88.29286651611329L770.543,86.67406860351565L770.91705,102.34642333984374L771.478125,71.31081237792972L772.0392,193.19448562622068L773.722425,86.9203756713867L774.844575,116.86564575195308L775.218625,66.33902221679688L777.2759000000001,258.1173196411133L777.462925,69.78114379882811L778.585075,67.38772338867187L779.8942499999999,73.4243041992188L784.38285,75.82050354003906L784.569875,83.74067718505859L784.943925,90.80290466308594L785.505,93.49129882812503L785.87905,91.9973403930664L789.8065750000001,77.7106896972656L790.3676499999999,81.0391229248047L791.1157499999999,82.04948547363279L791.302775,75.08438781738283L791.4898000000001,85.63904968261721L791.86385,66.00413452148439L792.61195,90.82183502197267L793.1730249999999,74.93673278808598L793.5470750000001,79.53906677246096L793.921125,72.82656860351562L795.2303,65.01810974121094L795.791375,70.63809875488278L795.9784,60.20493103027343L796.539475,87.13680480957032L797.4746,66.18226928710936L798.9708,73.77846740722657L799.7189,73.04573242187502L800.09295,60.81091491699215L800.467,57.335357666015625L800.6540249999999,70.93887817382813L801.7761750000001,56.62858886718749L802.524275,68.15136291503904L802.898325,62.20972595214846L803.272375,89.59453887939452L803.8334500000001,83.28573791503908L805.5166750000001,56.96786621093753L805.890725,75.80349365234372L806.07775,72.60929870605469L806.8258500000001,57.33627807617188L807.760975,71.83142822265626L808.1350249999999,206.24812522888183L810.005275,91.49116790771484L810.379325,85.78786407470704L810.753375,55.80496337890628L813.1847,74.07283935546877L813.9327999999999,217.07801628112793L814.30685,221.8666890716553L816.1771,59.11167846679689L817.112225,207.99852409362794L818.4214,121.44768646240234L818.982475,107.45962036132812L819.356525,75.18427001953125L820.478675,92.12915374755858L821.78785,74.67977905273438L823.097025,70.9948638916016L823.28405,62.13779235839843L823.471075,79.73532653808593L823.845125,88.12010375976564L824.4062,66.92836791992187L824.78025,71.70423461914066L825.9024,81.89225463867189L826.6505,80.26346496582033L826.837525,92.77845001220703L827.959675,82.14292480468748L828.1467,86.01137329101562L828.3337250000001,70.66679077148439L829.26885,62.91075988769529L829.455875,70.50605529785156L830.203975,66.83954833984376L832.26125,51.86551940917968L833.3833999999999,92.54923248291016L834.1315,251.9734313964844L834.50555,223.19054531097413L835.066625,78.62055053710935L835.4406749999999,71.83203002929685L836.562825,80.4543438720703L837.1239,339.7647186279297L837.8720000000001,115.29474456787108L838.6201000000001,107.43345062255861L838.99415,324.43519897460936L839.5552250000001,76.20488098144529L839.929275,80.9397009277344L840.677375,76.97742370605465L841.051425,109.47046875000001L841.6125000000001,110.21530181884765L842.547625,113.44958770751953L843.2957250000001,108.62352325439451L843.48275,68.16254943847656" style="fill: none;" fill="none"></path></g></g></g></g></g></g><g transform="translate(48, 377)" clip-path="url(#clip_1)"><clipPath id="clip_1"><rect width="935" height="23"></rect></clipPath><g><g><line x1="0" y1="0" x2="0" y2="5" style="visibility: inherit;" fill="rgb(0, 0, 0)" stroke="rgb(204, 204, 204)" stroke-width="1px"></line><line x1="93.5125" y1="0" x2="93.5125" y2="5" style="visibility: inherit;" fill="rgb(0, 0, 0)" stroke="rgb(204, 204, 204)" stroke-width="1px"></line><line x1="187.025" y1="0" x2="187.025" y2="5" style="visibility: inherit;" fill="rgb(0, 0, 0)" stroke="rgb(204, 204, 204)" stroke-width="1px"></line><line x1="280.53749999999997" y1="0" x2="280.53749999999997" y2="5" style="visibility: inherit;" fill="rgb(0, 0, 0)" stroke="rgb(204, 204, 204)" stroke-width="1px"></line><line x1="374.05" y1="0" x2="374.05" y2="5" style="visibility: inherit;" fill="rgb(0, 0, 0)" stroke="rgb(204, 204, 204)" stroke-width="1px"></line><line x1="467.5625" y1="0" x2="467.5625" y2="5" style="visibility: inherit;" fill="rgb(0, 0, 0)" stroke="rgb(204, 204, 204)" stroke-width="1px"></line><line x1="561.0749999999999" y1="0" x2="561.0749999999999" y2="5" style="visibility: inherit;" fill="rgb(0, 0, 0)" stroke="rgb(204, 204, 204)" stroke-width="1px"></line><line x1="654.5875" y1="0" x2="654.5875" y2="5" style="visibility: inherit;" fill="rgb(0, 0, 0)" stroke="rgb(204, 204, 204)" stroke-width="1px"></line><line x1="748.1" y1="0" x2="748.1" y2="5" style="visibility: inherit;" fill="rgb(0, 0, 0)" stroke="rgb(204, 204, 204)" stroke-width="1px"></line><line x1="841.6125000000001" y1="0" x2="841.6125000000001" y2="5" style="visibility: inherit;" fill="rgb(0, 0, 0)" stroke="rgb(204, 204, 204)" stroke-width="1px"></line><line x1="935.125" y1="0" x2="935.125" y2="5" style="visibility: inherit;" fill="rgb(0, 0, 0)" stroke="rgb(204, 204, 204)" stroke-width="1px"></line></g><g transform="translate(0, 8)"><text x="0" y="0" dx="0em" dy="0.95em" style="text-anchor: middle; visibility: hidden; font-family: &quot;Helvetica Neue&quot;, sans-serif; font-size: 12px; font-weight: 200;" fill="rgb(50, 49, 63)" stroke="none" stroke-width="1px">-500</text><text x="93.5125" y="0" dx="0em" dy="0.95em" style="text-anchor: middle; visibility: inherit; font-family: &quot;Helvetica Neue&quot;, sans-serif; font-size: 12px; font-weight: 200;" fill="rgb(50, 49, 63)" stroke="none" stroke-width="1px">0</text><text x="187.025" y="0" dx="0em" dy="0.95em" style="text-anchor: middle; visibility: inherit; font-family: &quot;Helvetica Neue&quot;, sans-serif; font-size: 12px; font-weight: 200;" fill="rgb(50, 49, 63)" stroke="none" stroke-width="1px">500</text><text x="280.53749999999997" y="0" dx="0em" dy="0.95em" style="text-anchor: middle; visibility: inherit; font-family: &quot;Helvetica Neue&quot;, sans-serif; font-size: 12px; font-weight: 200;" fill="rgb(50, 49, 63)" stroke="none" stroke-width="1px">1k</text><text x="374.05" y="0" dx="0em" dy="0.95em" style="text-anchor: middle; visibility: inherit; font-family: &quot;Helvetica Neue&quot;, sans-serif; font-size: 12px; font-weight: 200;" fill="rgb(50, 49, 63)" stroke="none" stroke-width="1px">1.5k</text><text x="467.5625" y="0" dx="0em" dy="0.95em" style="text-anchor: middle; visibility: inherit; font-family: &quot;Helvetica Neue&quot;, sans-serif; font-size: 12px; font-weight: 200;" fill="rgb(50, 49, 63)" stroke="none" stroke-width="1px">2k</text><text x="561.0749999999999" y="0" dx="0em" dy="0.95em" style="text-anchor: middle; visibility: inherit; font-family: &quot;Helvetica Neue&quot;, sans-serif; font-size: 12px; font-weight: 200;" fill="rgb(50, 49, 63)" stroke="none" stroke-width="1px">2.5k</text><text x="654.5875" y="0" dx="0em" dy="0.95em" style="text-anchor: middle; visibility: inherit; font-family: &quot;Helvetica Neue&quot;, sans-serif; font-size: 12px; font-weight: 200;" fill="rgb(50, 49, 63)" stroke="none" stroke-width="1px">3k</text><text x="748.1" y="0" dx="0em" dy="0.95em" style="text-anchor: middle; visibility: inherit; font-family: &quot;Helvetica Neue&quot;, sans-serif; font-size: 12px; font-weight: 200;" fill="rgb(50, 49, 63)" stroke="none" stroke-width="1px">3.5k</text><text x="841.6125000000001" y="0" dx="0em" dy="0.95em" style="text-anchor: middle; visibility: inherit; font-family: &quot;Helvetica Neue&quot;, sans-serif; font-size: 12px; font-weight: 200;" fill="rgb(50, 49, 63)" stroke="none" stroke-width="1px">4k</text><text x="935.125" y="0" dx="0em" dy="0.95em" style="text-anchor: middle; visibility: hidden; font-family: &quot;Helvetica Neue&quot;, sans-serif; font-size: 12px; font-weight: 200;" fill="rgb(50, 49, 63)" stroke="none" stroke-width="1px">4.5k</text></g><line x1="0" y1="0" x2="935.125" y2="0" fill="rgb(0, 0, 0)" stroke="rgb(204, 204, 204)" stroke-width="1px"></line></g></g></g></g></svg>