<svg viewBox="0 0 330 200" xmlns="http://www.w3.org/2000/svg"><g><g><g><g><g><line x1="29.4375" y1="177" x2="24.4375" y2="177" style="visibility: inherit;" fill="rgb(0, 0, 0)" stroke="rgb(204, 204, 204)" stroke-width="1px"></line><line x1="29.4375" y1="159.3" x2="24.4375" y2="159.3" style="visibility: inherit;" fill="rgb(0, 0, 0)" stroke="rgb(204, 204, 204)" stroke-width="1px"></line><line x1="29.4375" y1="141.6" x2="24.4375" y2="141.6" style="visibility: inherit;" fill="rgb(0, 0, 0)" stroke="rgb(204, 204, 204)" stroke-width="1px"></line><line x1="29.4375" y1="123.9" x2="24.4375" y2="123.9" style="visibility: inherit;" fill="rgb(0, 0, 0)" stroke="rgb(204, 204, 204)" stroke-width="1px"></line><line x1="29.4375" y1="106.2" x2="24.4375" y2="106.2" style="visibility: inherit;" fill="rgb(0, 0, 0)" stroke="rgb(204, 204, 204)" stroke-width="1px"></line><line x1="29.4375" y1="88.5" x2="24.4375" y2="88.5" style="visibility: inherit;" fill="rgb(0, 0, 0)" stroke="rgb(204, 204, 204)" stroke-width="1px"></line><line x1="29.4375" y1="70.8" x2="24.4375" y2="70.8" style="visibility: inherit;" fill="rgb(0, 0, 0)" stroke="rgb(204, 204, 204)" stroke-width="1px"></line><line x1="29.4375" y1="53.10000000000001" x2="24.4375" y2="53.10000000000001" style="visibility: inherit;" fill="rgb(0, 0, 0)" stroke="rgb(204, 204, 204)" stroke-width="1px"></line><line x1="29.4375" y1="35.400000000000006" x2="24.4375" y2="35.400000000000006" style="visibility: inherit;" fill="rgb(0, 0, 0)" stroke="rgb(204, 204, 204)" stroke-width="1px"></line><line x1="29.4375" y1="17.69999999999999" x2="24.4375" y2="17.69999999999999" style="visibility: inherit;" fill="rgb(0, 0, 0)" stroke="rgb(204, 204, 204)" stroke-width="1px"></line><line x1="29.4375" y1="0" x2="24.4375" y2="0" style="visibility: inherit;" fill="rgb(0, 0, 0)" stroke="rgb(204, 204, 204)" stroke-width="1px"></line></g><g transform="translate(19.4375, 0)"><text x="0" y="177" dx="0em" dy="0.3em" style="text-anchor: end; visibility: hidden; font-family: &quot;Helvetica Neue&quot;, sans-serif; font-size: 12px; font-weight: 200;" fill="rgb(50, 49, 63)" stroke="none" stroke-width="1px">-5</text><text x="0" y="159.3" dx="0em" dy="0.3em" style="text-anchor: end; visibility: inherit; font-family: &quot;Helvetica Neue&quot;, sans-serif; font-size: 12px; font-weight: 200;" fill="rgb(50, 49, 63)" stroke="none" stroke-width="1px">0</text><text x="0" y="141.6" dx="0em" dy="0.3em" style="text-anchor: end; visibility: hidden; font-family: &quot;Helvetica Neue&quot;, sans-serif; font-size: 12px; font-weight: 200;" fill="rgb(50, 49, 63)" stroke="none" stroke-width="1px">5</text><text x="0" y="123.9" dx="0em" dy="0.3em" style="text-anchor: end; visibility: inherit; font-family: &quot;Helvetica Neue&quot;, sans-serif; font-size: 12px; font-weight: 200;" fill="rgb(50, 49, 63)" stroke="none" stroke-width="1px">10</text><text x="0" y="106.2" dx="0em" dy="0.3em" style="text-anchor: end; visibility: hidden; font-family: &quot;Helvetica Neue&quot;, sans-serif; font-size: 12px; font-weight: 200;" fill="rgb(50, 49, 63)" stroke="none" stroke-width="1px">15</text><text x="0" y="88.5" dx="0em" dy="0.3em" style="text-anchor: end; visibility: inherit; font-family: &quot;Helvetica Neue&quot;, sans-serif; font-size: 12px; font-weight: 200;" fill="rgb(50, 49, 63)" stroke="none" stroke-width="1px">20</text><text x="0" y="70.8" dx="0em" dy="0.3em" style="text-anchor: end; visibility: hidden; font-family: &quot;Helvetica Neue&quot;, sans-serif; font-size: 12px; font-weight: 200;" fill="rgb(50, 49, 63)" stroke="none" stroke-width="1px">25</text><text x="0" y="53.10000000000001" dx="0em" dy="0.3em" style="text-anchor: end; visibility: inherit; font-family: &quot;Helvetica Neue&quot;, sans-serif; font-size: 12px; font-weight: 200;" fill="rgb(50, 49, 63)" stroke="none" stroke-width="1px">30</text><text x="0" y="35.400000000000006" dx="0em" dy="0.3em" style="text-anchor: end; visibility: hidden; font-family: &quot;Helvetica Neue&quot;, sans-serif; font-size: 12px; font-weight: 200;" fill="rgb(50, 49, 63)" stroke="none" stroke-width="1px">35</text><text x="0" y="17.69999999999999" dx="0em" dy="0.3em" style="text-anchor: end; visibility: inherit; font-family: &quot;Helvetica Neue&quot;, sans-serif; font-size: 12px; font-weight: 200;" fill="rgb(50, 49, 63)" stroke="none" stroke-width="1px">40</text><text x="0" y="0" dx="0em" dy="0.3em" style="text-anchor: end; visibility: hidden; font-family: &quot;Helvetica Neue&quot;, sans-serif; font-size: 12px; font-weight: 200;" fill="rgb(50, 49, 63)" stroke="none" stroke-width="1px">45</text></g><line x1="29.4375" y1="0" x2="29.4375" y2="177" fill="rgb(0, 0, 0)" stroke="rgb(204, 204, 204)" stroke-width="1px"></line></g></g><g transform="translate(29, 0)" clip-path="url(#clip_0)"><clipPath id="clip_0"><rect width="300" height="177"></rect></clipPath><g><g><g><line x1="0" y1="0" x2="0" y2="177" fill="rgb(0, 0, 0)" stroke="rgb(60, 60, 60)" stroke-width="1px" opacity="0.25"></line><line x1="30.056250000000002" y1="0" x2="30.056250000000002" y2="177" fill="rgb(0, 0, 0)" stroke="rgb(60, 60, 60)" stroke-width="1px" opacity="0.25"></line><line x1="60.112500000000004" y1="0" x2="60.112500000000004" y2="177" fill="rgb(0, 0, 0)" stroke="rgb(60, 60, 60)" stroke-width="1px" opacity="0.25"></line><line x1="90.16875" y1="0" x2="90.16875" y2="177" fill="rgb(0, 0, 0)" stroke="rgb(60, 60, 60)" stroke-width="1px" opacity="0.25"></line><line x1="120.22500000000001" y1="0" x2="120.22500000000001" y2="177" fill="rgb(0, 0, 0)" stroke="rgb(60, 60, 60)" stroke-width="1px" opacity="0.25"></line><line x1="150.28125" y1="0" x2="150.28125" y2="177" fill="rgb(0, 0, 0)" stroke="rgb(60, 60, 60)" stroke-width="1px" opacity="0.25"></line><line x1="180.3375" y1="0" x2="180.3375" y2="177" fill="rgb(0, 0, 0)" stroke="rgb(60, 60, 60)" stroke-width="1px" opacity="0.25"></line><line x1="210.39374999999998" y1="0" x2="210.39374999999998" y2="177" fill="rgb(0, 0, 0)" stroke="rgb(60, 60, 60)" stroke-width="1px" opacity="0.25"></line><line x1="240.45000000000002" y1="0" x2="240.45000000000002" y2="177" fill="rgb(0, 0, 0)" stroke="rgb(60, 60, 60)" stroke-width="1px" opacity="0.25"></line><line x1="270.50625" y1="0" x2="270.50625" y2="177" fill="rgb(0, 0, 0)" stroke="rgb(60, 60, 60)" stroke-width="1px" opacity="0.25"></line><line x1="300.5625" y1="0" x2="300.5625" y2="177" fill="rgb(0, 0, 0)" stroke="rgb(60, 60, 60)" stroke-width="1px" opacity="0.25"></line></g><g><line x1="0" y1="177" x2="300.5625" y2="177" fill="rgb(0, 0, 0)" stroke="rgb(60, 60, 60)" stroke-width="1px" opacity="0.25"></line><line x1="0" y1="159.3" x2="300.5625" y2="159.3" fill="rgb(0, 0, 0)" stroke="rgb(60, 60, 60)" stroke-width="1px" opacity="0.25"></line><line x1="0" y1="141.6" x2="300.5625" y2="141.6" fill="rgb(0, 0, 0)" stroke="rgb(60, 60, 60)" stroke-width="1px" opacity="0.25"></line><line x1="0" y1="123.9" x2="300.5625" y2="123.9" fill="rgb(0, 0, 0)" stroke="rgb(60, 60, 60)" stroke-width="1px" opacity="0.25"></line><line x1="0" y1="106.2" x2="300.5625" y2="106.2" fill="rgb(0, 0, 0)" stroke="rgb(60, 60, 60)" stroke-width="1px" opacity="0.25"></line><line x1="0" y1="88.5" x2="300.5625" y2="88.5" fill="rgb(0, 0, 0)" stroke="rgb(60, 60, 60)" stroke-width="1px" opacity="0.25"></line><line x1="0" y1="70.8" x2="300.5625" y2="70.8" fill="rgb(0, 0, 0)" stroke="rgb(60, 60, 60)" stroke-width="1px" opacity="0.25"></line><line x1="0" y1="53.10000000000001" x2="300.5625" y2="53.10000000000001" fill="rgb(0, 0, 0)" stroke="rgb(60, 60, 60)" stroke-width="1px" opacity="0.25"></line><line x1="0" y1="35.400000000000006" x2="300.5625" y2="35.400000000000006" fill="rgb(0, 0, 0)" stroke="rgb(60, 60, 60)" stroke-width="1px" opacity="0.25"></line><line x1="0" y1="17.69999999999999" x2="300.5625" y2="17.69999999999999" fill="rgb(0, 0, 0)" stroke="rgb(60, 60, 60)" stroke-width="1px" opacity="0.25"></line><line x1="0" y1="0" x2="300.5625" y2="0" fill="rgb(0, 0, 0)" stroke="rgb(60, 60, 60)" stroke-width="1px" opacity="0.25"></line></g></g></g><g><g><line x1="0" y1="159.3" x2="300.5625" y2="159.3" fill="rgb(0, 0, 0)" stroke="rgb(153, 153, 153)" stroke-width="1.5px"></line></g></g><g><g><line x1="30.056250000000002" y1="0" x2="30.056250000000002" y2="177" fill="rgb(0, 0, 0)" stroke="rgb(153, 153, 153)" stroke-width="1.5px"></line></g></g><g><g><g><g><g><path stroke="rgb(255, 112, 67)" stroke-width="2px" d="M30.156637875,-169.4443341064453L30.34118325,100.82280395507813L30.378452999999997,78.89760955810547L30.408509249999998,107.5741024017334L30.445177875,105.03370096206665L30.9194655,137.89422117233278L31.100404125,-35.75213104248047L31.184561625,86.72993247985839L31.443045375,82.71883094787597L31.492337624999998,130.05011598587038L31.55064675,140.69608085632325L32.00750175,2.250486831665029L32.7565035,140.05262572288513L33.14242575,129.04128067016603L33.607095375,95.44317043304443L33.65698875,131.87387721061708L34.083186375,148.44945585250855L34.090399874999996,130.81111862182618L34.24368675,151.3597630119324L34.542445875,149.90495378494262L34.74382275,152.46586193561555L34.764862125,116.22587677001952L34.9734525,143.40633934020997L34.998098625000004,154.03903312683104L35.16461025,128.68054080963134L35.6226675,150.7688436126709L35.7477015,149.36285988807677L36.307348875,152.28899081468583L36.611518125,151.61964634895324L36.64818675,151.7998922109604L36.9884235,152.27926158428193L37.00886175,151.71435516357423L37.251115125000005,149.23677446365357L37.796936625,153.37817383289337L37.89131325,154.6117250418663L38.648730750000006,153.8481102204323L38.873551500000005,27.345967941284187L38.940276375,155.23374970436095L39.357457125,153.30123547554015L39.7439805,151.47459536075593L40.189414125,134.7796402645111L40.333684125000005,153.7506373000145L40.465931625,151.36962010860444L40.601785875000004,154.44145865678786L41.796822375,153.19486762046813L41.862345,154.6887710094452L41.917047375,152.38907170057297L42.11601975,152.6967715358734L42.2254245,155.3283977508545L42.402756375,156.10969862937927L42.42620025,154.91012904167175L42.548829749999996,152.23563850879668L42.592711875,152.97695902347564L42.727965000000005,149.63314301490783L42.766436999999996,149.80788682937623L42.87163387499999,151.0335546398163L43.47937125,152.30578518390655L43.49620275,151.54262021541595L44.054046750000005,145.93035195350646L44.099131125,70.3535163116455L44.138805375000004,118.74791610717773L44.28487875,146.1397403526306L44.303513625,139.60601205825805L44.571615375,100.88344379425048L44.652767250000004,147.43797881126403L44.67681225,141.34682816505432L44.920267875,147.90315545082092L45.04470075,-1054.633822631836L45.236459625,134.47191215515136L46.164596625,155.03810756206514L46.649103375,154.54712894439697L47.47084125,156.47510434269904L47.486470499999996,156.33263916492461L47.646970875,152.65555597543715L47.987207624999996,157.0016698729992L48.093005625,155.53757008552552L48.37252875,156.8764717054367L48.4578885,156.9808894944191L48.51439425,157.1559953856468L48.52281,156.67440544366838L48.935181750000005,156.81383770108224L48.957423375,156.54532718896866L49.253778,157.05094459533692L49.553739375,157.04887932300568L49.82965575,156.88173553347588L49.83446475,156.92388941287993L50.002178625000006,157.4051274061203L50.118796875,156.71914028048516L50.336404125,157.47760795712472L50.343617625,157.30615701556206L50.365258125,157.5967076843977L50.397718874999995,158.17118139266967L50.4199605,158.1952750056982L50.442202125,156.72630754351616L50.5161405,157.63185645461084L50.71210725,157.34381510853768L50.810090625,150.0978529214859L50.85457387499999,136.34075151443483L51.385968375000004,151.27122216224672L51.668497125,153.03624423980713L51.718991625,153.0520186328888L52.074857625,153.77731239795685L52.092891375,153.330771317482L52.20770625,152.5377227783203L52.41930225,155.80108452916144L52.591825125,156.64023371100427L52.7571345,157.10266797780992L52.8244605,155.18894966840745L53.33181,157.40501051187516L53.403945,153.59077450275421L53.678058,158.0148099142313L53.922114750000006,158.11124861598014L54.53406,156.890291390419L54.577942125,157.89174696564675L54.865279875000006,157.69921940088273L55.38405074999999,157.50058527231215L55.5848265,158.18907412469386L56.288743875,157.5546921157837L56.332024875,156.61411713123323L56.388530625,157.90881225943565L56.50154212499999,157.60722289144994L56.549632125,157.0495405983925L56.625975000000004,157.7758939021826L56.656632375,155.9027816784382L56.688492,157.30534846186637L56.996268,157.6010285514593L57.085234500000006,157.16620569705964L57.330493499999996,157.86565654993058L57.411645375,156.87524220585823L57.502415250000006,158.27584626317025L57.908775750000004,157.6731252926588L57.956264624999996,158.14642460525036L58.490063625,157.48498474359513L58.756361999999996,157.69307179749012L58.892216250000004,156.82904851198197L59.019053625000005,157.62546314120294L59.674881,158.28610784769057L59.722369875,157.57607395112515L60.146163,157.80484980940818L60.604821375,156.4083159506321L60.79417575,140.4963174533844L60.850080375,149.8451917076111L61.19332275,156.47274852275848L61.72471725,156.69646617293358L61.85936925,154.0393530035019L61.879206375,155.41922795534134L61.9711785,149.57694600105285L61.980195375,153.45724202871324L62.197201500000006,101.6511748123169L62.43404475,157.44359742879868L63.002107875,157.20741471648216L63.57858675,157.65287937819957L63.921829125,158.2733978140354L64.032436125,139.99003623962403L64.2121725,157.6465229898691L65.353708875,157.17519431591035L65.36993925,157.3760747551918L65.380158375,157.13105766534807L65.681322,157.22167855739593L66.231351375,151.47660914897918L66.234958125,157.87555014967919L66.409284375,157.75265251994134L66.8907855,157.76644466936588L67.40955637500001,157.93473007678986L67.654815375,156.6981784415245L68.330479875,157.89970210433006L68.447098125,157.60779269814492L68.841436125,157.77729441761971L69.062650125,155.16735377311707L69.51589837499999,157.61687858819963L70.203585375,156.55936167240142L70.317198,140.6285488986969L70.344248625,158.01996708154678L70.59612,157.58841821551323L71.645083125,141.5403999710083L71.807386875,10.101202239990243L71.96608387500001,156.91950229167938L72.083904375,156.73942079901695L72.41271975,150.00464896202087L72.4836525,148.94877489566804L72.529338,157.2284316265583L72.7337205,156.30910290956496L72.99340649999999,157.90144053697585L73.28074425,155.72832587957382L73.311401625,157.59655017256736L73.32462637500001,157.82768026828765L73.3444635,156.2738075995445L73.359491625,156.01482903242112L73.515784125,158.18190918266774L73.771863375,157.61731746912002L73.94378512499999,158.1075659197569L75.43337287499999,157.20317487359046L75.87279525,156.6288095140457L76.03149225000001,157.0653162574768L76.146307125,156.81676744222642L76.21663875,157.3727586722374L76.28636924999999,156.99277430534363L76.290577125,153.56633769750596L77.06903399999999,156.47039797782898L77.40987187500001,156.40342749238013L77.49703500000001,157.5156452178955L77.528894625,153.49058389663696L77.548130625,148.19304727077485L78.164884875,130.48224151611328L78.2063625,155.18914463281632L78.38068875,148.59534999847412L78.39030675,130.22937858581543L78.492498,139.8987490081787L78.514739625,156.6543207335472L78.7449705,129.27641618728637L78.75639187499999,144.9126411151886L79.81136625,143.18489859580993L80.110125375,131.03980934143067L80.796610125,153.82408866405487L80.912026125,155.3489905500412L81.20537512499999,147.58159246444703L81.76141575,156.49289843201637L82.2218775,155.80899641275406L82.272973125,157.65793927431108L82.35893399999999,157.60300003409387L82.59036712499999,157.61946566462518L82.75447425,157.4619510912895L83.037604125,157.61452804327013L83.36040824999999,158.03039071440696L83.764965375,158.30353880524635L83.77458337499999,158.039981739521L84.14126962499999,158.10698851704598L84.299966625,157.7932581835985L84.9389625,157.52967949032785L85.133727,-14.37547027587891L85.147552875,157.83333993315696L85.431885,157.8560634148121L85.8334365,157.88221987366677L86.09492587499999,158.1634071868658L86.24400487499999,157.56505255401134L86.502488625,142.00491322517394L86.884203,156.17356466531754L87.033282,156.12959892511367L87.197389125,-104.28707336425782L87.38974912500001,155.31477893829344L87.451665,156.33816568851472L87.94518862499999,103.07086681365966L88.085851875,156.11681820631026L88.84387050000001,153.27200600624084L88.95808425,157.4368268465996L89.09393850000001,147.64671226501466L89.25143324999999,156.5065583896637L89.600686875,153.03374599456788L90.0990195,148.44738129615783L90.522812625,139.31735670089722L90.68451524999999,145.79155839443206L90.719981625,140.4501286125183L90.76807162499999,-69.0465019226074L90.813156,113.14590162277221L90.971251875,116.2792953300476L91.324713375,143.02848818778992L91.336735875,58.11419425964357L91.89998999999999,127.64917064666747L91.91862487499999,147.32137912273407L91.95168675,153.40012927293776L91.972726125,142.41468452453614L91.97873737500001,104.21290924072265L92.282906625,144.80850311279298L92.541390375,153.57627202033996L92.7391605,155.58011410474776L92.77402574999999,156.6238989007473L93.111858,130.83840013504027L93.12868950000001,154.80544075012207L93.23027962500001,151.40299278259278L93.43526324999999,156.40866072535516L93.63964575,156.5229678940773L93.64806150000001,157.3202803301811L93.93600037499999,151.01852043628693L94.11573675000001,155.56829385995866L94.879766625,145.16843526363374L95.33000925,155.158898563385L95.75981362499999,154.6139603805542L96.07299975,156.350282599926L96.31465200000001,153.8609664773941L96.43127025,149.28103222846985L96.565321125,135.79520902633666L96.97528837499999,156.39834238171576L97.20071025,155.8170102095604L97.331154375,149.72418210983275L97.92446475,153.74664981365203L98.17693725,94.42127334594727L98.428808625,155.17423154354094L98.57247749999999,151.77417294502257L98.76002849999999,152.30874172210693L99.24333299999999,154.3103303217888L99.48979424999999,156.1530541563034L99.49700775,156.7899739730358L99.71341275,156.15862562298776L100.191307125,145.35805882930757L100.214149875,156.80406247258185L100.257430875,153.17829480171204L100.416127875,153.02764301776887L100.76958937500001,155.69635382652282L100.883803125,138.8228155517578L100.953533625,147.9795004749298L101.10321375000001,154.35751339673996L101.58892275000001,115.93082387924194L101.77166475,146.3724400806427L102.907791,147.17588925361633L102.908392125,143.6624094772339L102.9919485,151.4830387544632L103.00998225,156.78824355840683L103.034628375,114.1896380996704L103.294314375,155.54568220853804L103.516730625,156.77567215204238L103.76739975,157.31289088368416L103.77461325,156.142436825037L104.0355015,131.04655122756958L104.39497424999999,125.34062324523926L104.71417162499999,133.8918196105957L105.37120125,150.43956307411193L106.72493475,153.01635787010193L106.78204162499999,155.8995565366745L107.067576,156.76904125213622L107.68913925,134.93610975265503L107.79253275,156.49035608768463L107.84543175,155.72954672813415L107.90313975,155.46822014808654L108.157415625,154.86121998310088L108.245179875,133.96087921142578L109.21239,155.3100373363495L109.24485075,153.51973571777344L109.3302105,154.13545357704163L109.8111105,147.4575647163391L109.9553805,156.83093232393264L110.5228425,133.25815152168275L110.611207875,157.32540405392646L110.83302300000001,157.05021495580672L110.84083762499999,155.13270539045334L110.89193325,156.3244396877289L111.13418662500001,157.45661024808885L111.577816875,137.0526889514923L111.73230600000001,157.16476920604705L111.93488512500001,121.37478721618652L112.213807125,139.0048363494873L112.21681275,155.55334279060364L112.443436875,102.21072772979737L112.750010625,-44.82623039245604L113.575956375,152.79596284389496L113.76771525000001,155.07686918735504L113.854878375,156.4359439265728L113.882530125,155.9461133623123L114.198721875,153.22604504585266L114.22276687499999,139.66171279907226L114.24080062499999,145.62600829124452L114.246811875,152.7774099969864L114.292497375,141.47613261222838L114.66459375000001,103.92955759048462L114.808262625,154.91302903175352L114.94832475,154.89552907705308L115.327634625,151.7348947906494L115.349275125,155.768813277483L115.5338205,142.59195865631102L115.53442162500001,136.9184470939636L115.867444875,133.00208307266234L115.95220350000001,132.0408410167694L116.12893425,110.26468214035035L116.22270975,127.97025255203248L116.49321599999999,67.25721141815185L116.56895775000001,150.44402277946472L116.75410425000001,155.69958466529846L116.78957062500001,143.84199110984804L116.8611045,152.19760103702546L118.008051,148.80627532482148L118.238883,-540.1189462280273L118.716777375,151.44139570713043L119.136362625,147.61851585388183L119.277627,109.89096828460693L119.35096425,153.04030220031737L119.3858295,156.26884908914565L119.427307125,154.0169924426079L119.429711625,132.88929574012758L119.88957225,154.64908942222596L120.034443375,26.084165039062498L120.15647175000001,122.77005043029786L120.68065275,155.96366437911988L120.74377087500001,155.27839655399322L120.85137225,139.02560892105103L120.85978800000001,154.34878093242645L120.8814285,134.50719311714172L120.906074625,153.91273121595384L120.96258037499999,136.98023139953614L120.9920355,152.39031997919082L121.152535875,155.19520709753036L121.74163837500001,138.08397133827208L121.88771175,145.57298810005187L123.028647,115.85461051940918L123.344237625,138.80522655487061L123.58168199999999,151.1026589727402L123.66343499999999,133.43094400405883L123.67245187500001,153.51099185943605L124.2236835,154.7353898692131L124.45992562500001,155.63317227602005L124.471347,153.99662625789642L124.51102125,155.89215569615365L124.607802375,146.04328529834748L124.69135875,155.76829400539398L124.807375875,155.85608390450477L124.990117875,23.050079956054674L125.880384,155.48041344165802L126.10340137499999,153.58801841497421L126.35767725,151.45887835979462L126.3877335,154.48781629800797L126.491127,153.29986481666566L126.51336862500001,143.6808880519867L126.66184650000001,155.8193959915638L126.93295387500001,154.60447211265563L126.949785375,89.13312286376953L127.0561845,149.2756314611435L127.40844375,148.1386910247803L127.52385975,123.68702121734619L127.56233175,152.20962806224824L127.788955875,145.17333384990692L127.912787625,150.03551832675933L128.217558,146.16400371551515L129.01464975000002,128.82935857772827L129.52019587499998,141.1046908092499L129.600746625,155.28727503061293L129.72277499999998,156.61538566589354L130.02213525,152.35954556465148L130.035961125,144.82723657608034L130.412265375,152.7002796292305L130.58478825,2.2649361419677803L130.6821705,107.48123182296753L130.8312495,155.90271795630454L131.067491625,155.89240151166916L131.15345250000001,155.725646173954L131.279087625,153.3155463695526L131.47806,118.32934186935424L131.840538375,155.74862496614458L131.97939825,135.68533687591554L132.171157125,112.1053048324585L132.22525837499998,131.5076108264923L132.3605115,153.9345241856575L132.545056875,155.60674067258836L132.9760635,155.53874746799468L133.2213225,154.3426007294655L133.24476637499998,155.80133794069292L133.250777625,153.99317260265352L133.699818,144.98648958206178L134.0340435,153.24139997005463L134.106779625,157.59442940711975L134.15547075,156.31416818618774L134.22820687499998,133.89611220359802L134.3851005,154.38251188516617L134.498713125,100.47381935119628L134.90086575,156.54766422986984L135.040927875,149.5720212507248L135.35531625000002,147.64115029335022L135.417232125,118.6479221534729L135.902941125,156.98218503713608L136.024368375,86.52490756988526L136.204705875,100.57395847320556L136.867145625,156.47072502851486L136.922449125,157.3207196331024L137.171916,97.10107349395751L137.453843625,151.0562388753891L137.477888625,118.55444051742555L137.77544550000002,106.38165618896484L138.23831175,46.24704998016358L138.44810437499999,156.7547582101822L138.88933012500001,141.55661662101744L138.891734625,154.49224857330321L138.9247965,152.1218071460724L139.138195875,154.07564761161805L139.2421905,154.8947876214981L139.513297875,147.93923652648925L139.962939375,154.65820295333862L139.995400125,156.18312804937364L140.02846200000002,154.88653201818465L140.031467625,153.25781496047975L140.196777,143.74554365158082L140.225029875,154.86220873117446L140.226232125,154.28483091831208L140.35427175,108.7234133720398L140.42159775,154.82755275249482L140.752817625,153.76081089735032L141.111088125,153.9927674818039L141.29924025,145.8886101579666L141.86850562499998,149.07050273895263L142.004961,155.46003923892974L142.279074,156.00904593229293L142.2959055,155.14789235830307L142.52072625,151.30133952140807L142.5507825,156.67493843078614L142.8273,155.0314450120926L142.87178325,157.4029908156395L143.033485875,121.23226232528685L143.06113762500001,156.19043372869493L143.8203585,155.29913789749145L143.824566375,156.17715736985207L143.86243725,144.7072431564331L144.22972462500002,155.68436815738679L144.47318024999998,155.98961025953292L144.53569725,155.85200969696047L145.60149187500002,150.51348581314087L147.047798625,156.02846578001976L147.454159125,157.5054602265358L147.516075,157.45596184372903L147.647721375,157.82051152825355L148.174908,154.49252878189088L148.31316675,148.71474333286287L148.343223,154.4370863056183L148.55481899999998,148.51001635551452L149.19982612500002,121.23633378982544L149.590557375,155.78231519579887L149.592961875,157.6118720752001L149.835816375,149.4228363418579L149.852647875,156.84481952905656L150.07806975,83.6069436264038L150.079873125,149.84211194515228L150.408087375,156.0610332763195L150.44114925,144.15104936599732L151.12342612499998,153.87685734272003L151.354258125,134.3267776107788L151.43541,146.40317440509796L151.68968587499998,155.66660360813142L151.76121975,126.4818419265747L152.065990125,155.8313422036171L152.223484875,106.14714523315429L153.138397125,152.5379114127159L153.546561,158.01841865479946L153.95412375,131.42699346542358L154.51918125,157.44969091057777L154.85521012499999,138.832624540329L155.291626875,155.98884601593016L155.53989149999998,103.96272686004639L155.65170075,114.3026533126831L155.93903849999998,157.1203704929352L156.2852865,157.83132994294166L156.407314875,157.0750965499878L157.038496125,137.64292133331298L157.312008,157.70095382452013L158.155386375,79.23797859191893L158.201673,124.9288246536255L158.61705037500002,150.23847712039947L158.74809562500002,148.9383506298065L158.769135,139.74466298103331L159.06368625000002,117.43836296081543L159.10095600000002,125.32532318115234L159.13401787499998,150.43859753608703L159.49649625,147.30670952796936L159.870997125,71.43921318054198L159.913075875,147.5121488428116L159.9305085,132.03172917366027L160.7720835,155.4407065343857L160.921763625,154.17488533973693L161.021550375,156.33675261855126L161.23374750000002,155.28112943172454L161.247573375,125.30626224517823L162.01160324999998,157.56141775488854L162.17751374999997,157.5460137730837L162.220193625,119.47573934555054L162.463048125,157.43630651950838L162.737161125,157.21159864425658L162.806891625,156.93849739551544L163.06717875,141.28557220458984L163.47474150000002,157.9836559098959L163.5324495,155.7541476917267L164.42992912499997,152.6073482823372L165.216200625,110.17923877716065L165.4320045,134.27052151679993L166.058977875,153.7170042514801L166.117888125,155.7462364411354L166.125101625,152.89352480649947L166.26816937499999,154.34504538059235L166.75868737500002,154.9875674700737L167.09171062500002,152.30412967443465L167.09291287500002,156.25107145786285L167.215542375,91.60749298095703L167.46320587500003,156.60346118688582L167.46500925,156.06358511567117L167.713273875,132.8968478679657L167.88820124999998,150.60843094825745L167.98077450000002,157.12609155893327L168.058319625,156.95124140024186L168.277129125,155.95108453273772L168.461073375,144.35742805480956L168.53801737499998,72.56785285949707L168.929950875,68.13296115875244L169.5533175,155.41096602201463L169.62184574999998,53.620668067932115L169.632666,150.77465625286104L169.778739375,148.25470244407654L170.40090375,157.23319242954256L170.402106,155.30667525529861L170.40992062499998,157.0768394136429L170.498286,145.73193304538728L170.60468512499997,157.56809043288231L170.681629125,150.16429527282716L170.99481525,151.41475141525268L171.270731625,142.2324257183075L171.356091375,151.78677726745605L171.449866875,41.619212722778315L171.50637262499998,153.21778564453126L172.36538025,155.54991023540498L172.46636924999999,154.96441354751587L173.152252875,154.2885432600975L173.307343125,154.71080283164977L173.493691875,108.1273624420166L173.61331575,107.82186080932617L173.92830525,127.91931873321533L174.38275575,152.79485466957092L175.246572375,152.0371014404297L175.30548262500002,154.8437964105606L175.566972,157.05758942127227L175.73348362500002,150.44339990615845L176.47286737500002,155.90295575380327L177.2717625,73.8176844406128L177.76107825,152.1161768102646L177.96305625,157.38662245631218L178.497456375,157.93049107789994L178.83889537500002,157.45424957513808L178.91523825000002,156.545749822855L178.95130575000002,157.84881671011448L179.3107785,157.00915131568908L179.396739375,154.87404965400697L179.71233,91.46512001037598L179.759818875,111.40251468658447L180.1427355,157.90797775268555L180.35192700000002,96.25603866577148L180.3639495,156.62809780955314L180.48297225000002,125.8105870628357L180.859877625,157.99076419830322L181.055844375,157.5557574570179L181.130383875,158.01009964585305L181.356406875,136.04741194725037L181.4171205,144.95258096694945L181.424935125,156.60129611134528L181.57942425,157.31355659008025L181.743531375,157.97257479965685L181.891408125,129.40384019851683L182.118633375,144.30281101226808L182.16612225,157.68564194440842L182.26110000000003,110.9743627166748L182.404768875,157.97247098743915L182.91873075,157.2971766257286L182.99567475,153.78165141105652L183.103276125,158.12185254871844L183.15677625,105.95271760940551L183.5859795,113.90271125793457L183.62084475,157.9342392897606L183.941244375,157.74477756142616L184.38307125,127.64783037185668L184.51231312500002,146.72739515304565L185.18376975,146.9013709259033L185.270932875,131.2269160938263L185.35689375,151.59043797969818L185.39055675,154.36585508823396L185.487939,155.3501139163971L185.722978875,157.2205758690834L185.814349875,152.781308863163L185.82096225,157.33235588550568L186.190053,124.61538940429688L186.35656462499998,96.61612358093262L186.369789375,155.5006488060951L186.475587375,152.71614686250686L186.667947375,60.17983795166016L186.921622125,156.8884715116024L187.746365625,155.13610545158386L187.858776,158.07610364377499L187.867792875,154.87781643390656L187.91047275,156.54670734286307L188.063759625,67.94214248657227L188.069770875,62.40006225585937L188.33246250000002,146.47913372039795L188.721390375,146.5822099685669L188.8806885,155.75885553359984L189.33033,153.25749001979827L189.517881,154.30608541488647L189.71565112500002,153.97905625104903L189.77155574999998,154.2765597009659L190.03003950000002,150.12188755989075L190.141247625,153.56524429321288L190.35104025,-34.438553695678706L190.652805,157.6209833908081L190.943148375,130.07242464065553L190.946755125,158.0710158956051L191.04113174999998,157.72786418795584L191.04233399999998,118.48144449234009L191.09583412499998,157.19760847091675L191.570722875,157.03426374435423L191.5881555,156.82257058739663L191.922381,157.75181716918945L192.564983625,156.92825037002564L192.716467125,76.22263710021971L192.877568625,155.38166776657104L192.9923835,149.0039785194397L193.072333125,142.51901664733887L193.2953505,109.4230030632019L193.606132125,143.64830283164977L193.76903700000003,157.3654390668869L194.013694875,137.54339495658874L194.12610525,108.47051668167114L194.634055875,153.26500458955763L195.60727725,157.03335180044175L195.609080625,157.38631903767586L195.68181675,155.6229459285736L195.90543525,157.12199308633805L196.42781287499997,148.49639585494995L196.831768875,157.93949003577234L197.61804037500002,156.15894402265548L197.69738887499997,157.02934448003768L197.798979,141.98454915046693L198.053856,89.61601341247558L198.05926612500002,-2288.9911376953123L198.071288625,157.27954331874847L198.30512625,58.88597648620605L198.643559625,157.91275459170342L198.74274525,154.90130795717238L198.91466699999998,149.8374100112915L199.138886625,143.33748567581176L199.294578,154.49136321544648L199.39436475,148.5736684370041L199.711157625,137.7042498779297L199.96423125,150.52599645137786L200.59901925,151.2545759153366L200.957890875,101.51387935638428L201.30834675,153.2293856048584L201.699679125,155.67206092357634L202.104837375,155.8495466887951L202.11866325,155.80119319438933L202.40059087499998,145.5930593061447L202.66027687500002,155.80376761078836L202.66508587500002,149.8843500137329L202.81115925,116.46022567749023L203.637105,152.88673565626144L203.743504125,138.97160462379455L203.76574575,140.4953215312958L203.9328585,46.39967926025392L204.0001845,156.6525500178337L204.29473575,122.35551052093507L204.348235875,157.03116900086403L204.37348312499998,156.77252107143403L204.873018,155.6719752573967L206.041003875,151.24393642902373L206.196094125,94.35623119354248L206.68240425000002,107.70000720977784L206.787601125,154.4930516409874L206.92285424999997,154.48460951328278L207.633384,156.51290317296983L207.73256962500002,153.708083152771L208.518841125,157.13270178079605L208.701583125,155.62208926677704L208.746066375,155.6857831263542L208.77011137500003,148.15156627178192L209.402494875,157.21852832078935L209.43976462499998,74.64916122436523L209.89361399999999,150.5780198764801L210.08417062499998,156.15511731863023L210.12204150000002,155.11888781547546L210.82295325,157.84610134541987L210.894487125,155.79291902303697L210.990667125,157.5028986811638L211.0117065,-47.95346626281736L211.14996525,155.7109149670601L211.29062850000003,156.20233795166016L211.493207625,156.64729062080383L211.855084875,151.44680660247803L211.89295574999997,154.27802573204042L212.23679925,153.28426091194152L212.81207587499998,154.58391307353975L212.965963875,152.0874756860733L213.15050925,92.26668537139892L213.582117,119.4687442588806L213.855628875,146.72013842582703L214.30466925,154.28613490104675L214.76392875,142.90272517204284L215.2772895,152.0657958126068L215.449812375,-60.07059036254881L215.716711875,152.53198694229127L215.809285125,152.1879355287552L215.84415037500003,155.0875740838051L216.252915375,153.77676042079926L216.26313449999998,153.69613968372346L216.35450550000002,156.94174595832826L216.37133699999998,156.05312434673309L216.46871925,155.16826445102691L216.58173075,156.34554395198822L217.39024387499998,155.56105148077012L217.712446875,131.08514236450196L217.960110375,156.5527541935444L218.061099375,155.29973291873932L218.41095412500002,116.47088710784912L218.650803,154.03917069911958L218.68446600000001,153.5050492429733L218.75299425,152.83805363416673L218.777640375,153.42952247858048L218.984427375,157.4971031320095L219.2783775,155.28677960157395L219.30422587500001,156.4280885910988L219.512215125,147.24509317874907L219.764687625,152.3656932735443L220.1295705,117.56135427474976L220.48964437499998,153.71769042491914L221.031859125,155.39355932950974L221.03726924999998,156.01896886110305L221.21760675,157.02536543369294L221.459860125,155.0851133966446L221.71173149999998,153.59978801965713L221.881849875,121.15046504974366L222.07661437500002,151.0624608564377L222.38078362500002,155.78246943712236L222.424064625,126.04170513153076L222.58576725,153.19538752555846L222.651289875,142.5830240535736L222.840043125,92.9700426864624L222.862885875,137.23567359924317L222.93201525,138.6494069480896L222.973492875,138.45337234497072L222.990324375,150.3940038585663L223.247605875,154.01830317735673L223.8517365,-34.00439918518066L224.176344,105.68436218261719L224.224434,153.8855741930008L224.249080125,152.31999943971633L224.536417875,152.0143598127365L225.00349200000002,113.76619565963745L225.234925125,155.50345595598222L225.45914475,115.84324012756348L225.482588625,144.70052152633667L226.250826375,57.957891883850095L226.4293605,139.78118968963622L227.24809274999998,-735.1339141845702L227.551660875,152.3441577243805L227.55226199999998,152.58647822856904L227.85643124999999,154.68826081037523L228.15218475,151.4822310447693L228.25317375,139.45851093292237L228.455752875,118.91217573165893L228.494826,154.94714569330216L228.626472375,150.3408384990692L229.009990125,140.38153658866884L229.41214275,152.4189312171936L229.523952,51.1100193786621L229.599092625,122.71500463485717L229.615323,125.68916221618652L229.706092875,157.6129350954294L229.78484025,151.97111231803893L230.06256,157.46209604859354L230.11425674999998,157.35215469002725L230.385364125,157.3798807811737L230.42624062500002,156.6288913822174L230.68953337500002,136.7102402973175L230.89151137500002,157.777840064764L231.09769725,154.51229783535004L231.101304,158.17808195114137L231.11573099999998,102.6986046409607L231.118736625,157.67110760092734L231.15179849999998,154.21126308202744L231.646524375,157.00078557014464L231.80942925000002,154.20792843103408L232.26448087499998,155.1575836086273L232.269891,152.91377873897554L232.29032924999998,121.75553667068482L232.46946450000002,139.48567428588868L233.02249949999998,155.7785743689537L233.6620965,157.7197296988964L233.678928,157.39820110559464L233.77150125,152.39791219711304L234.16523812499997,121.36603322982788L234.86855437499997,155.17684415102005L235.49733112500002,154.85990460634233L235.524982875,154.49419948339462L235.53279750000002,97.7880099105835L236.281198125,155.01983323574066L236.33169262500002,67.21270889282226L236.477766,68.77185024261473L237.145615875,150.42806354999541L237.163649625,-982.253203125L237.276661125,150.4439223432541L237.47202675,137.80693450927734L237.61208887499998,153.4357292675972L237.68001600000002,156.03369331598282L238.49634375,73.40845161437989L238.713349875,141.64881368637086L239.35835699999998,152.19427904605865L239.39442449999999,103.07647436141968L239.57295862499998,152.12678253650665L239.8031895,145.67571830749512L240.06167324999998,119.09819034576417L240.576837375,140.47027831077577L240.69045,155.79002747297287L241.688918625,125.01880199432372L241.98888,148.57529060840608L242.0297565,149.48824901103973L242.032762125,116.47106941223144L242.376605625,157.16285690903663L243.005382375,146.66142206668854L244.47393075,72.01834018707277L244.51240275,157.32504704117775L245.2133145,74.96611427307128L245.308893375,154.7603659915924L245.35638225000002,134.5757091808319L245.3768205,83.55238735198975L245.60885475,154.09072021722793L245.744107875,155.3635559105873L245.85050700000002,147.8493689060211L245.910018375,156.7641732609272L246.08975475000003,81.30720085144043L246.203367375,110.54264568328857L246.33501375,22.026150512695324L246.661424625,127.92526725769044L246.73115512500002,156.0515334033966L246.92652074999998,156.20675250291825L247.08281325000002,156.33993218421935L247.135111125,156.4893928706646L247.570325625,146.90352735042572L247.62021900000002,156.68197107553482L247.87870275,156.75215277671813L248.1131415,156.66135506629945L248.301293625,123.55391538619995L248.77017112500002,156.65786427497864L248.77558125,156.72149061441422L248.998598625,154.93633318662643L249.06652574999998,155.56381854057312L249.225823875,157.56275992870331L249.32861625,157.35039346933365L249.34544775,157.50840410470963L249.687487875,154.79754848957063L250.018106625,95.58657646179199L250.46173687499999,138.90754826545714L250.5897765,116.26446115493775L251.4602055,147.13897092819215L251.703661125,135.9790444278717L251.92727962499998,118.18202304840088L252.295168125,151.10023331165314L252.473101125,157.0173655629158L252.48091575,135.3574489402771L252.975641625,150.18625282287599L253.148765625,151.35483235359192L253.2251085,145.31137455940245L253.262979375,154.68388550519944L253.510642875,154.6195708823204L254.32035825,157.26485051393507L254.773005375,156.94007610082627L254.88782025,155.01536593437194L255.109635375,155.91484140872956L255.390961875,157.6224497383833L255.508782375,154.86614810943604L255.632614125,132.61693130493165L255.80814262500002,112.31972854614258L255.9758565,156.42248990535737L256.371997875,112.93651491165161L256.659335625,108.14069766998291L256.747099875,158.1258108115196L256.761526875,123.54066118240357L256.84989225,157.8836471861601L256.903392375,158.1609295141697L257.236415625,157.50339157819747L257.420359875,157.00245901465416L258.05454675,157.6339382904768L258.32385075,103.67578313827515L258.3803565,153.25649072170256L258.59555925,134.65974306106568L258.712778625,156.38890623092652L258.872677875,117.66223949432373L259.4768085,146.6767153787613L259.811034,142.56850891113282L259.835079,124.31605911254883L260.067714375,154.27762018918992L260.233624875,58.60500492095946L260.35926,138.1801993560791L260.626760625,41.332495193481435L260.78305312500004,151.1431963777542L260.7896655,154.67699591875078L261.143728125,155.4315647292137L261.18761025,155.80599936246873L261.37516124999996,144.84219566345215L261.443088375,154.75713557481765L261.79414537499997,145.39897181510926L261.94262325,146.94133778572083L262.16203387499996,153.78653944730758L262.253404875,152.64372349262237L262.364613,143.69549097061156L262.513090875,152.82584683656694L262.991586375,125.10400228500367L263.07995174999996,155.43411825656892L263.11782262500003,154.90547816991807L263.12864287499997,148.94476335525513L263.28192975,138.8777398109436L263.350458,156.48151390314104L263.587902375,147.84489907264708L263.79649275,91.34015373229981L263.799498375,150.28844962120056L263.99847075,146.2124848651886L264.263566875,152.6550563263893L265.228973625,-2634.8429150390625L265.843323375,147.53455371379852L266.413791,141.7879693222046L266.543032875,150.9520831489563L267.11470275,120.11687347412109L267.448327125,127.53149316787719L267.604619625,152.76986926317215L267.6424905,154.9428682923317" style="fill: none;" fill="none"></path></g></g></g></g></g></g><g transform="translate(29, 177)" clip-path="url(#clip_1)"><clipPath id="clip_1"><rect width="300" height="23"></rect></clipPath><g><g><line x1="0" y1="0" x2="0" y2="5" style="visibility: inherit;" fill="rgb(0, 0, 0)" stroke="rgb(204, 204, 204)" stroke-width="1px"></line><line x1="30.056250000000002" y1="0" x2="30.056250000000002" y2="5" style="visibility: inherit;" fill="rgb(0, 0, 0)" stroke="rgb(204, 204, 204)" stroke-width="1px"></line><line x1="60.112500000000004" y1="0" x2="60.112500000000004" y2="5" style="visibility: inherit;" fill="rgb(0, 0, 0)" stroke="rgb(204, 204, 204)" stroke-width="1px"></line><line x1="90.16875" y1="0" x2="90.16875" y2="5" style="visibility: inherit;" fill="rgb(0, 0, 0)" stroke="rgb(204, 204, 204)" stroke-width="1px"></line><line x1="120.22500000000001" y1="0" x2="120.22500000000001" y2="5" style="visibility: inherit;" fill="rgb(0, 0, 0)" stroke="rgb(204, 204, 204)" stroke-width="1px"></line><line x1="150.28125" y1="0" x2="150.28125" y2="5" style="visibility: inherit;" fill="rgb(0, 0, 0)" stroke="rgb(204, 204, 204)" stroke-width="1px"></line><line x1="180.3375" y1="0" x2="180.3375" y2="5" style="visibility: inherit;" fill="rgb(0, 0, 0)" stroke="rgb(204, 204, 204)" stroke-width="1px"></line><line x1="210.39374999999998" y1="0" x2="210.39374999999998" y2="5" style="visibility: inherit;" fill="rgb(0, 0, 0)" stroke="rgb(204, 204, 204)" stroke-width="1px"></line><line x1="240.45000000000002" y1="0" x2="240.45000000000002" y2="5" style="visibility: inherit;" fill="rgb(0, 0, 0)" stroke="rgb(204, 204, 204)" stroke-width="1px"></line><line x1="270.50625" y1="0" x2="270.50625" y2="5" style="visibility: inherit;" fill="rgb(0, 0, 0)" stroke="rgb(204, 204, 204)" stroke-width="1px"></line><line x1="300.5625" y1="0" x2="300.5625" y2="5" style="visibility: inherit;" fill="rgb(0, 0, 0)" stroke="rgb(204, 204, 204)" stroke-width="1px"></line></g><g transform="translate(0, 8)"><text x="0" y="0" dx="0em" dy="0.95em" style="text-anchor: middle; visibility: hidden; font-family: &quot;Helvetica Neue&quot;, sans-serif; font-size: 12px; font-weight: 200;" fill="rgb(50, 49, 63)" stroke="none" stroke-width="1px">-50k</text><text x="30.056250000000002" y="0" dx="0em" dy="0.95em" style="text-anchor: middle; visibility: inherit; font-family: &quot;Helvetica Neue&quot;, sans-serif; font-size: 12px; font-weight: 200;" fill="rgb(50, 49, 63)" stroke="none" stroke-width="1px">0</text><text x="60.112500000000004" y="0" dx="0em" dy="0.95em" style="text-anchor: middle; visibility: hidden; font-family: &quot;Helvetica Neue&quot;, sans-serif; font-size: 12px; font-weight: 200;" fill="rgb(50, 49, 63)" stroke="none" stroke-width="1px">50k</text><text x="90.16875" y="0" dx="0em" dy="0.95em" style="text-anchor: middle; visibility: inherit; font-family: &quot;Helvetica Neue&quot;, sans-serif; font-size: 12px; font-weight: 200;" fill="rgb(50, 49, 63)" stroke="none" stroke-width="1px">100k</text><text x="120.22500000000001" y="0" dx="0em" dy="0.95em" style="text-anchor: middle; visibility: hidden; font-family: &quot;Helvetica Neue&quot;, sans-serif; font-size: 12px; font-weight: 200;" fill="rgb(50, 49, 63)" stroke="none" stroke-width="1px">150k</text><text x="150.28125" y="0" dx="0em" dy="0.95em" style="text-anchor: middle; visibility: inherit; font-family: &quot;Helvetica Neue&quot;, sans-serif; font-size: 12px; font-weight: 200;" fill="rgb(50, 49, 63)" stroke="none" stroke-width="1px">200k</text><text x="180.3375" y="0" dx="0em" dy="0.95em" style="text-anchor: middle; visibility: hidden; font-family: &quot;Helvetica Neue&quot;, sans-serif; font-size: 12px; font-weight: 200;" fill="rgb(50, 49, 63)" stroke="none" stroke-width="1px">250k</text><text x="210.39374999999998" y="0" dx="0em" dy="0.95em" style="text-anchor: middle; visibility: inherit; font-family: &quot;Helvetica Neue&quot;, sans-serif; font-size: 12px; font-weight: 200;" fill="rgb(50, 49, 63)" stroke="none" stroke-width="1px">300k</text><text x="240.45000000000002" y="0" dx="0em" dy="0.95em" style="text-anchor: middle; visibility: hidden; font-family: &quot;Helvetica Neue&quot;, sans-serif; font-size: 12px; font-weight: 200;" fill="rgb(50, 49, 63)" stroke="none" stroke-width="1px">350k</text><text x="270.50625" y="0" dx="0em" dy="0.95em" style="text-anchor: middle; visibility: inherit; font-family: &quot;Helvetica Neue&quot;, sans-serif; font-size: 12px; font-weight: 200;" fill="rgb(50, 49, 63)" stroke="none" stroke-width="1px">400k</text><text x="300.5625" y="0" dx="0em" dy="0.95em" style="text-anchor: middle; visibility: hidden; font-family: &quot;Helvetica Neue&quot;, sans-serif; font-size: 12px; font-weight: 200;" fill="rgb(50, 49, 63)" stroke="none" stroke-width="1px">450k</text></g><line x1="0" y1="0" x2="300.5625" y2="0" fill="rgb(0, 0, 0)" stroke="rgb(204, 204, 204)" stroke-width="1px"></line></g></g></g></g></svg>